<svg xmlns="http://www.w3.org/2000/svg" width="194" height="167.71" viewBox="0 0 194 167.71">
  <g id="Group_319" data-name="Group 319" transform="translate(4798.5 7220.556)">
    <path id="Path_2554" data-name="Path 2554" d="M-76.13,9.89c.69.046,1.334.092,1.978.092,9.66,0,17.2-6.808,18.676-14.582.368-1.932-.69-2.99-.69-2.3C-57.5,1.2-66.424,8.878-74.566,8.878a10.616,10.616,0,0,1-1.7-.138C-84.87,7.544-88.78-1.748-88.6-8.97c.276-10.672,7.59-21.758,18.584-21.39,5.382.184,7.268,3.5,7.268,7.636,0,5.658-3.542,12.788-6.716,15.364-.23.184-.414.506-.138.644.368.184,2.208-.874,2.484-1.1C-63.8-10.488-60.95-16.7-60.95-22.08c0-5.106-2.576-9.476-9.706-9.476-12.006,0-19.734,12.1-19.918,22.724C-90.712.23-85.008,9.062-76.13,9.89Zm30.636-10.3A9.241,9.241,0,0,0-38.088-5.52c.644-1.288.828-2.346-.23-1.242-1.932,2.024-5.152,5.244-9.476,5.244a3.828,3.828,0,0,1-3.358-2.346A4.848,4.848,0,0,0-46.966-6.44c.506-1.334-.828-2.714-2.254-2.714a4.007,4.007,0,0,0-3.634,4.186,4.274,4.274,0,0,0,.23,1.334C-51.7-.782-48.208-.276-45.494-.414Zm-2.99-7.176c.506.506-.782,1.748-2.714,2.622C-51.244-6.118-49.45-8.556-48.484-7.59Zm14.4,9.476c2.9,0,6.578-4.968,7.406-7.268.184-.552.092-1.7-.368-1.058-.69.874-6.256,8.372-8.648,6.9-1.012-.69-1.38-3.956-1.38-8.05a145.618,145.618,0,0,1,1.61-19.872c0-.23-.368-.6-.828-.828-.46-.184-.736-.138-.782.138-.6,1.932-1.886,11.822-1.886,19.458,0,3.818.322,7.084,1.2,8.464A4.574,4.574,0,0,0-34.086,1.886Zm13.938-2.3A9.241,9.241,0,0,0-12.742-5.52c.644-1.288.828-2.346-.23-1.242-1.932,2.024-5.152,5.244-9.476,5.244a3.828,3.828,0,0,1-3.358-2.346A4.848,4.848,0,0,0-21.62-6.44c.506-1.334-.828-2.714-2.254-2.714a4.007,4.007,0,0,0-3.634,4.186,4.274,4.274,0,0,0,.23,1.334C-26.358-.782-22.862-.276-20.148-.414Zm-2.99-7.176c.506.506-.782,1.748-2.714,2.622C-25.9-6.118-24.1-8.556-23.138-7.59ZM-11.868.276a.881.881,0,0,0,.736.092c.092-.046.138-.138.184-.138a1.374,1.374,0,0,0,.092-.69l.276-1.288.138-.46.092.046a8.7,8.7,0,0,0,4.416.69l.184-.046h.368A11.3,11.3,0,0,0,3.634-5.612c.414-.6.69-2.024.23-1.564A19.617,19.617,0,0,1-3.68-3.312l.322-.736a5.992,5.992,0,0,0,.322-1.886A3.945,3.945,0,0,0-4.324-8.97l-.23-.184A2.412,2.412,0,0,0-5.888-9.8c-2.024-.368-4.968,3.45-5.75,5.336-.23-2.346-.276-5.29-.276-8.28,0-6.026.184-12.1.736-13.708.138-.276-.138-.736-.506-1.012-.46-.276-.92-.276-1.058-.046-.6,1.656-.828,7.084-.828,12.558v1.472c0,2.99.092,5.934.184,8.28l.368,2.944A6.528,6.528,0,0,0-12.6-.6a.358.358,0,0,0,.138.276A2.22,2.22,0,0,0-11.868.276Zm1.794-3.4-.092-.046c2.024-2.944,3.22-4.784,4.784-5.29h.092l.138.184A1.9,1.9,0,0,1-4.738-6.9,4.1,4.1,0,0,1-8.694-2.852,3.692,3.692,0,0,1-10.074-3.128ZM3.45-1.38c.184.69,1.7,1.288,1.656.69a10.642,10.642,0,0,1,.322-1.978c1.1-3.174,4.922-5.98,7.222-5.934l-.046.368c-.046.368.6.644,1.242-.092.322-.368-.322-1.334-1.38-1.518-2.53-.414-5.934,2.254-7.084,3.726l.046-1.794a1.341,1.341,0,0,0-.69-.966c-.46-.23-.92-.23-.92.092C3.174-2.99,3.266-1.794,3.45-1.38ZM38.778-20.01c-.46.046-.92.046-1.334.046a65.477,65.477,0,0,1,.874-7.774c.138-.966-1.7-1.472-1.7-.736-.506,2.53-.644,5.336-1.1,8.6A100.468,100.468,0,0,0,23.506-18.86c-.782.138.138,1.38,1.012,1.242,3.588-.46,7.084-.644,10.764-.828v.184c-1.61,9.614-5.75,15.364-8,15-.69-.138-.966-.92-1.012-1.932a5.663,5.663,0,0,1,.69-2.116L26.91-7.36,27-7.452V-7.59c.322-.552-1.242-1.564-1.518-1.058V-8.6c-.046,0-.046.046-.138.138v.092L24.7-7.59h-.046l-.506-.184A12.506,12.506,0,0,0,20.7-8.28a6.962,6.962,0,0,0-4.278,1.242,2.78,2.78,0,0,0-1.2,2.208,2.6,2.6,0,0,0,.506,1.518,4.706,4.706,0,0,0,1.38,1.288l.23.138a2.6,2.6,0,0,0,1.38.368,5.648,5.648,0,0,0,1.748-.368A12.784,12.784,0,0,0,23.322-3.68l.736-.552.782-.736a4.06,4.06,0,0,0,3.082,3.036c2.484.368,5.382-2.99,7.13-8.1-.092,1.794-.092,4.278-.092,6.992,0,5.428.138,11.684.368,14.858.23.966,1.564,2.392,1.518,1.288-.138-2.53-.23-5.934-.23-9.706,0-7.084.276-15.364.644-20.792a10.514,10.514,0,0,1,.092-1.15,7.8,7.8,0,0,0,1.012-.046c1.932-.092,4.968-.138,8.326-.138,6.118,0,13.34.184,17.066.92.368.046.6-.138.552-.506a3,3,0,0,0-1.058-.92c-3.128-.69-10.672-.92-17.112-.92C43.286-20.148,40.664-20.1,38.778-20.01ZM17.94-2.9c-.368,0-.506-.046-.506-.092l-.184-.092A1.2,1.2,0,0,1,16.836-4,2.3,2.3,0,0,1,17.894-5.8a6.386,6.386,0,0,1,3.818-1.1,9.653,9.653,0,0,1,1.656.138l.506.092-.138.092A16.162,16.162,0,0,1,21.9-4.922a12.143,12.143,0,0,1-2.76,1.7A5.9,5.9,0,0,1,17.94-2.9Zm23.552.874a4.053,4.053,0,0,0,3.266,1.2c3.174-.138,7.36-3.772,8.234-5.382.552-1.012.092-1.288-.092-1.1-1.38,1.38-6.256,5.06-9.108,5.06a2.191,2.191,0,0,1-1.334-.414c-.69-.6.23-5.8.6-6.164.046-.23-.23-.6-.736-.782-.552-.138-1.012-.092-1.058.138a7.348,7.348,0,0,0-.782,3.634A6.09,6.09,0,0,0,41.492-2.024ZM42.458-12.7c.414.23.966.23,1.1.046.138-.23.506-1.242.6-1.472A1.755,1.755,0,0,0,44.3-14.9c.092-.23-.276-.6-.874-.736-.46-.184-.966-.092-.966.184l-.092.69c-.092.23-.414,1.15-.506,1.288C41.63-13.294,41.906-12.88,42.458-12.7ZM51.98-2.208c.046.736,1.656,1.15,1.61.552l.046-1.058c.874-1.932,4.37-4.14,7.774-4.508a9.39,9.39,0,0,0-.138,1.564,4.012,4.012,0,0,0,.6,2.3A4.422,4.422,0,0,0,65.5-1.61c3.22,0,6.21-2.438,7.314-3.864.69-.874.506-1.886.322-1.794-1.472.736-5.474,4.37-8.326,4.37A2.368,2.368,0,0,1,63.25-3.4c-.6-.874-.092-2.622-.092-3.4a1.954,1.954,0,0,0-1.7-1.61C58.88-8.694,55.568-7.038,54-5.888L54.1-7.452c.046-.276-.368-.69-.736-.92-.46-.184-.92-.138-.92.184l-.46,4.6A4.58,4.58,0,0,0,51.98-2.208ZM72.634,15.364a4.742,4.742,0,0,0,4.048,1.518c4-.828,5.474-6.854,5.842-12.65l.138-4.278L82.708-.6l1.334-.92A38.8,38.8,0,0,1,90.85-4.876c.368-.092.46-.23,0-.552-.874-.6-6.9,2.162-8.142,2.9l-.046.046v-.184A40.9,40.9,0,0,0,82.34-7.59c-.046-.644-1.334-1.38-1.61-.92-.138.184-.322.552-.644.966l-.092.046-.046-.046a12.825,12.825,0,0,0-4.416-.92,4.757,4.757,0,0,0-3.174,1.058,2.469,2.469,0,0,0-.69,1.748,3.075,3.075,0,0,0,.6,1.748A6.1,6.1,0,0,0,73.6-2.576a1.605,1.605,0,0,0,.414.276,2.982,2.982,0,0,0,1.334.322A4.643,4.643,0,0,0,76.866-2.3a11.881,11.881,0,0,0,2.346-1.61,12.534,12.534,0,0,0,1.564-1.564l.138-.092v.23l.092,3.772.046.184L79.9-.552c-4.646,3.45-8.326,7.774-9.016,11.316A5.636,5.636,0,0,0,72.634,15.364Zm3.036.414a2.687,2.687,0,0,1-2.116-.874,3.849,3.849,0,0,1-.966-3.22c.506-3.082,3.45-6.992,7.36-10.212l.966-.828C81.006,6.578,79.672,14.95,75.67,15.778ZM74.52-3.358a.94.94,0,0,1-.368-.046l-.322-.23a2.2,2.2,0,0,1-.46-1.288,1.84,1.84,0,0,1,.506-1.288,3.762,3.762,0,0,1,2.668-.874,9.453,9.453,0,0,1,2.346.368l.322.092-.46.506-1.012.966a11.206,11.206,0,0,1-2.208,1.518A2.239,2.239,0,0,1,74.52-3.358Z" transform="translate(-4702 -7189)" fill="#999"/>
    <path id="Path_2553" data-name="Path 2553" d="M-46.98-16.7l-2.184.864a.441.441,0,0,0-.312.456v1.824a.352.352,0,0,0,.456.36l2.112-.432a.135.135,0,0,1,.168.144V-.408A.367.367,0,0,0-46.332,0h2.568a.367.367,0,0,0,.408-.408V-16.392a.367.367,0,0,0-.408-.408h-2.712A1.18,1.18,0,0,0-46.98-16.7ZM-35.22.264c3.528,0,5.736-2.112,5.736-5.5v-6.336c0-3.336-2.208-5.424-5.736-5.424s-5.712,2.088-5.712,5.424v6.336C-40.932-1.848-38.748.264-35.22.264Zm0-2.9a2.219,2.219,0,0,1-2.328-2.424v-6.6a2.219,2.219,0,0,1,2.328-2.424,2.225,2.225,0,0,1,2.352,2.424v6.6A2.225,2.225,0,0,1-35.22-2.64ZM-17.436-.024h2.544a.367.367,0,0,0,.408-.408V-6.36a.565.565,0,0,1,.048-.192l4.9-9.768c.144-.264,0-.48-.312-.48H-12.66a.525.525,0,0,0-.48.312l-2.928,6.24a.1.1,0,0,1-.192,0l-2.928-6.24a.525.525,0,0,0-.48-.312h-2.784c-.312,0-.432.216-.288.48l4.848,9.768a.565.565,0,0,1,.048.192V-.432A.367.367,0,0,0-17.436-.024ZM4.236-14.3v-2.088a.367.367,0,0,0-.408-.408H-7.02a.367.367,0,0,0-.408.408V-.408A.367.367,0,0,0-7.02,0H3.828a.367.367,0,0,0,.408-.408V-2.5A.367.367,0,0,0,3.828-2.9H-3.9a.138.138,0,0,1-.144-.144v-3.84A.138.138,0,0,1-3.9-7.032H1.116a.367.367,0,0,0,.408-.408V-9.528a.367.367,0,0,0-.408-.408H-3.9a.127.127,0,0,1-.144-.144v-3.672A.138.138,0,0,1-3.9-13.9H3.828A.367.367,0,0,0,4.236-14.3ZM17.388,0h2.784c.288,0,.432-.192.336-.456L15.4-16.464a.442.442,0,0,0-.456-.336H11.412a.442.442,0,0,0-.456.336L5.844-.456c-.1.264.048.456.336.456H8.964A.442.442,0,0,0,9.42-.336l.672-2.232c.024-.1.072-.12.144-.12h5.88c.072,0,.12.024.144.12l.672,2.232A.442.442,0,0,0,17.388,0ZM10.932-5.472l2.136-7.32c.048-.12.144-.12.192,0l2.16,7.32c.024.12-.024.168-.12.168H11.052C10.956-5.3,10.908-5.352,10.932-5.472ZM32,0h2.712c.312,0,.432-.216.288-.48L31.836-7.1a.121.121,0,0,1,.072-.192A4.478,4.478,0,0,0,34.98-11.76a4.819,4.819,0,0,0-5.136-5.064H23.1a.367.367,0,0,0-.408.408V-.408A.367.367,0,0,0,23.1,0h2.568a.367.367,0,0,0,.408-.408V-6.816a.127.127,0,0,1,.144-.144H28.4a.18.18,0,0,1,.168.12L31.524-.312A.525.525,0,0,0,32,0ZM26.22-13.9h3.12a2.13,2.13,0,0,1,2.28,2.184,2.107,2.107,0,0,1-2.28,2.136H26.22a.138.138,0,0,1-.144-.144v-4.032A.127.127,0,0,1,26.22-13.9ZM43.116.192c3.768,0,6.144-1.944,6.144-4.872,0-3.264-3.024-4.2-5.208-4.992-2.664-.936-3.72-1.368-3.72-2.616,0-1.128.864-1.8,2.4-1.8,2.016,0,3.1,1.176,3.1,2.424v.24c0,.144.144.24.408.24h2.52a.367.367,0,0,0,.408-.408v-.24c0-3.1-2.616-5.16-6.312-5.16-3.432,0-5.856,1.8-5.856,4.752,0,3.168,2.88,4.3,5.376,5.16,2.28.84,3.5,1.272,3.5,2.5,0,.96-.672,1.872-2.5,1.872-1.944,0-3.168-1.056-3.168-2.28v-.336c0-.192-.144-.312-.408-.312h-2.52a.367.367,0,0,0-.408.408v.408C36.876-1.776,39.348.192,43.116.192Z" transform="translate(-4702 -7152)" fill="#999"/>
    <path id="Path_2556" data-name="Path 2556" d="M-48.006-8.344V-9.562a.214.214,0,0,0-.238-.238h-6.328a.214.214,0,0,0-.238.238V-.238A.214.214,0,0,0-54.572,0h6.328a.214.214,0,0,0,.238-.238V-1.456a.214.214,0,0,0-.238-.238h-4.508a.081.081,0,0,1-.084-.084v-2.24a.081.081,0,0,1,.084-.084h2.926a.214.214,0,0,0,.238-.238V-5.558a.214.214,0,0,0-.238-.238h-2.926a.074.074,0,0,1-.084-.084V-8.022a.081.081,0,0,1,.084-.084h4.508A.214.214,0,0,0-48.006-8.344ZM-36.316.112c2.2,0,3.584-1.134,3.584-2.842,0-1.9-1.764-2.45-3.038-2.912-1.554-.546-2.17-.8-2.17-1.526,0-.658.5-1.05,1.4-1.05,1.176,0,1.806.686,1.806,1.414v.14c0,.084.084.14.238.14h1.47a.214.214,0,0,0,.238-.238V-6.9c0-1.806-1.526-3.01-3.682-3.01-2,0-3.416,1.05-3.416,2.772,0,1.848,1.68,2.506,3.136,3.01,1.33.49,2.044.742,2.044,1.456,0,.56-.392,1.092-1.456,1.092-1.134,0-1.848-.616-1.848-1.33v-.2c0-.112-.084-.182-.238-.182h-1.47a.214.214,0,0,0-.238.238v.238C-39.956-1.036-38.514.112-36.316.112ZM-17.766-9.8h-6.916a.214.214,0,0,0-.238.238V-8.33a.214.214,0,0,0,.238.238h2.352a.074.074,0,0,1,.084.084v7.77A.214.214,0,0,0-22.008,0h1.5a.214.214,0,0,0,.238-.238v-7.77a.074.074,0,0,1,.084-.084h2.422a.214.214,0,0,0,.238-.238V-9.562A.214.214,0,0,0-17.766-9.8ZM-9.282.056a1.248,1.248,0,0,0,1.3-1.218,1.282,1.282,0,0,0-1.3-1.2,1.275,1.275,0,0,0-1.274,1.2A1.224,1.224,0,0,0-9.282.056ZM10.276,0h6.16a.214.214,0,0,0,.238-.238V-1.456a.214.214,0,0,0-.238-.238H12.768c-.07,0-.1-.056-.042-.1.966-1.022,1.876-1.932,2.59-2.814A4.191,4.191,0,0,0,16.492-7.14c0-1.526-1.232-2.772-3.262-2.772-1.792,0-3.164.98-3.248,2.534v.588a.214.214,0,0,0,.238.238h1.512a.214.214,0,0,0,.238-.238v-.28a1.142,1.142,0,0,1,1.26-1.148A1.137,1.137,0,0,1,14.49-7.1,4.119,4.119,0,0,1,13.216-5c-.938,1.008-1.932,2.17-3.052,3.29a.427.427,0,0,0-.126.294V-.238A.214.214,0,0,0,10.276,0ZM28.224.154A3.046,3.046,0,0,0,31.57-3.052v-3.7a3.029,3.029,0,0,0-3.346-3.164,3.018,3.018,0,0,0-3.332,3.164v3.7A3.035,3.035,0,0,0,28.224.154Zm0-1.694a1.294,1.294,0,0,1-1.358-1.414V-6.8a1.294,1.294,0,0,1,1.358-1.414A1.3,1.3,0,0,1,29.6-6.8v3.85A1.3,1.3,0,0,1,28.224-1.54Zm12.712-8.2-1.274.5a.257.257,0,0,0-.182.266V-7.91a.205.205,0,0,0,.266.21l1.232-.252a.079.079,0,0,1,.1.084v7.63A.214.214,0,0,0,41.314,0h1.5a.214.214,0,0,0,.238-.238V-9.562a.214.214,0,0,0-.238-.238H41.23A.689.689,0,0,0,40.936-9.744Zm11.844,0-1.274.5a.257.257,0,0,0-.182.266V-7.91a.205.205,0,0,0,.266.21l1.232-.252a.079.079,0,0,1,.1.084v7.63A.214.214,0,0,0,53.158,0h1.5a.214.214,0,0,0,.238-.238V-9.562a.214.214,0,0,0-.238-.238H53.074A.689.689,0,0,0,52.78-9.744Z" transform="translate(-4702 -7053)" fill="#999"/>
    <path id="Path_2552" data-name="Path 2552" d="M-75.1,11.96a15.259,15.259,0,0,0,3.4.414c4.186-.138,7.636-2.99,10.074-6.716A21.3,21.3,0,0,0-58.673,0l.184-.736.736-.184a29.809,29.809,0,0,0,8.832-3.634c1.012-.736,2.116-2.576,1.426-2.162a48.19,48.19,0,0,1-9.936,3.864l-.6.092.23-.874a29.6,29.6,0,0,0,.552-6.256c0-1.012-.046-1.978-.092-2.806-1.242-9.154-6.072-18.86-17.894-18.216-7.452.46-13.616,6.21-13.616,13.57a14.178,14.178,0,0,0,1.1,5.474c.184.506.46.92.6,1.38a22.869,22.869,0,0,0,2.3,3.588l.414.368V-5.8A24.111,24.111,0,0,0-82.087,5.336,13.237,13.237,0,0,0-75.1,11.914ZM-60.007-2.3a40.306,40.306,0,0,1-6.9.92c-.506,0-1.012,0-1.472-.046-4.876,0-10.028-1.1-13.662-4.37l-.69-.736v-.184a26.39,26.39,0,0,1,2.208-10.028c1.242-2.852,2.9-4.462,4.554-4.646.506,0,.69-.414.414-.736a1.248,1.248,0,0,0-1.1-.6c-2.346.184-4.186,2.346-5.428,5.106A27.9,27.9,0,0,0-84.3-8.694l-.046.276-.414-.552c-.506-.874-1.012-1.794-1.472-2.76a13.766,13.766,0,0,1-1.012-5.06c0-6.946,5.888-12.42,12.512-12.742C-64.1-30.038-60.1-21.574-59.179-13.11A22.27,22.27,0,0,1-59-9.936a29.719,29.719,0,0,1-.69,6.67Zm-3.128,7.038c-2.438,3.772-5.75,6.164-9.2,6.256a8.209,8.209,0,0,1-2.622-.322l-.506-.184a11,11,0,0,1-5.06-5.244,21.052,21.052,0,0,1-2.162-9.062l-.092-1.058.138.138a13.765,13.765,0,0,0,3.22,2.07A24.973,24.973,0,0,0-67.781.276a8.362,8.362,0,0,0,1.518,0,32.8,32.8,0,0,0,4.324-.414l1.38-.138L-61.111.966A21.14,21.14,0,0,1-63.135,4.738Zm17.894,10.81a2.154,2.154,0,0,0,2.346.092,3.725,3.725,0,0,0,1.242-1.84,14.522,14.522,0,0,0,.736-5.06c0-.552,0-1.1-.046-1.7a21.218,21.218,0,0,0-2.162-8.05,15.494,15.494,0,0,0-2.53-3.45l-.782-.644.414.046a16.839,16.839,0,0,0,1.7.046,29.02,29.02,0,0,0,6.394-.552c1.84-.6,1.794-1.656.874-1.38-.828.322-9.154.552-9.706.506h-.184l-.046-.276c.092-2.714.828-11.638,1.1-13.478.092-.276-.23-.736-.69-.966-.414-.23-.828-.23-.874.046-.368,1.886-1.1,10.856-1.15,13.616l.046.874-1.15-.23c-.966-.23-.6.966.368,1.242l.782.368c-.138,1.886-.276,4.37-.276,6.992,0,5.382.644,11.316,3.45,13.708C-45.333,15.5-45.287,15.548-45.241,15.548Zm2.07-2.668c-.552,1.656-1.334,1.84-1.794,1.564l.092.046-.138-.184C-46.9,11.96-47.4,6.946-47.4,2.346a64.66,64.66,0,0,1,.322-6.578l.506.368a13.8,13.8,0,0,1,2.07,2.852A19.858,19.858,0,0,1-42.573,6.44c.046.69.092,1.426.092,2.07A11.758,11.758,0,0,1-43.171,12.88Zm32.43-19.964c-4.048-.552-8.694-1.794-9.476-4.738a7.663,7.663,0,0,1-.276-2.024c0-4.094,3.22-7.912,7.912-11.132,2.622-1.794,7.5-4,11.408-4a6.363,6.363,0,0,1,4,1.2,4.167,4.167,0,0,1,1.15,3.174,15.61,15.61,0,0,1-1.84,6.394c-.46,1.2.736.782,1.518-.736A13.994,13.994,0,0,0,5.5-24.794a5.091,5.091,0,0,0-1.61-3.772,9.611,9.611,0,0,0-6.164-1.978c-3.864,0-8.142,1.656-11.638,3.956-4.278,2.9-8.142,7.268-8.142,12.144a9.01,9.01,0,0,0,.46,2.852c1.2,3.864,6.578,5.152,11.04,5.75,3.22.46,7.544,1.058,10.258,2.76-5.612,1.84-10.9,4.324-14.214,7.314A6.728,6.728,0,0,0-17.135,8.51c0,2.76,2.668,3.588,5.244,3.588a14.433,14.433,0,0,0,2.07-.184c6.624-1.1,13.8-5.106,13.8-10.58A5.622,5.622,0,0,0,2.6-2.484l4.048-1.2L12.3-5.244c.322-.092.368-.138.138-.368-.414-.322-1.932-.23-6.21.736-1.61.368-3.22.782-4.83,1.288C-1.909-6.072-7.613-6.624-10.741-7.084ZM2.277,1.1C2,6.256-4.945,9.66-10.1,10.672a12.792,12.792,0,0,1-2.484.276c-1.932,0-3.22-.644-3.22-1.84,0-.966.782-2.254,2.622-3.864,2.76-2.438,7.268-4.876,14.26-7.222A4.512,4.512,0,0,1,2.277,1.1ZM17.319-.414A9.241,9.241,0,0,0,24.725-5.52c.644-1.288.828-2.346-.23-1.242-1.932,2.024-5.152,5.244-9.476,5.244a3.828,3.828,0,0,1-3.358-2.346A4.848,4.848,0,0,0,15.847-6.44c.506-1.334-.828-2.714-2.254-2.714A4.007,4.007,0,0,0,9.959-4.968a4.274,4.274,0,0,0,.23,1.334C11.109-.782,14.605-.276,17.319-.414ZM14.329-7.59c.506.506-.782,1.748-2.714,2.622C11.569-6.118,13.363-8.556,14.329-7.59Zm9.982,6.21c.184.69,1.7,1.288,1.656.69a10.642,10.642,0,0,1,.322-1.978c1.1-3.174,4.922-5.98,7.222-5.934l-.046.368c-.046.368.6.644,1.242-.092.322-.368-.322-1.334-1.38-1.518-2.53-.414-5.934,2.254-7.084,3.726l.046-1.794a1.341,1.341,0,0,0-.69-.966c-.46-.23-.92-.23-.92.092C24.035-2.99,24.127-1.794,24.311-1.38Zm14.352-.092c.69.69,1.288.506,2.07.276C41.883-1.564,43.079-4,43.585-5.7a4.936,4.936,0,0,0,2.9.644,13.557,13.557,0,0,0,3.864-.552c1.012-.368,1.84-1.472.644-1.288a29.324,29.324,0,0,1-4.232.414A8.9,8.9,0,0,1,44-6.9v-.046c.414-1.38-.6-2.162-1.15-1.932A1.767,1.767,0,0,0,42.343-6.9c-.46,1.334-1.932,4.83-2.76,4.876-.92-1.1-1.1-4.646-.92-6.072.092-.322-.276-.782-.552-.966-.46-.23-.874-.092-.92.23a9.311,9.311,0,0,0-.184,1.978A8.61,8.61,0,0,0,38.663-1.472Zm11.776-.552A4.053,4.053,0,0,0,53.7-.828c3.174-.138,7.36-3.772,8.234-5.382.552-1.012.092-1.288-.092-1.1-1.38,1.38-6.256,5.06-9.108,5.06A2.191,2.191,0,0,1,51.4-2.668c-.69-.6.23-5.8.6-6.164.046-.23-.23-.6-.736-.782-.552-.138-1.012-.092-1.058.138a7.348,7.348,0,0,0-.782,3.634A6.09,6.09,0,0,0,50.439-2.024ZM51.4-12.7c.414.23.966.23,1.1.046.138-.23.506-1.242.6-1.472a1.755,1.755,0,0,0,.138-.782c.092-.23-.276-.6-.874-.736-.46-.184-.966-.092-.966.184l-.092.69c-.092.23-.414,1.15-.506,1.288C50.577-13.294,50.853-12.88,51.4-12.7ZM62.261-5.152c.368-1.748,2.07-3.45,3.772-3.082a2.869,2.869,0,0,1-.322,1.058c-.322.6.092.782.552.6.414-.138,1.38-.46,1.38-1.242a1.944,1.944,0,0,0-1.058-1.334,3.55,3.55,0,0,0-1.7-.414,3.988,3.988,0,0,0-2.484.92,4.581,4.581,0,0,0-1.656,3.4C60.6-2.254,63.227-.46,65.895-.46A11.6,11.6,0,0,0,75.279-5.8c.322-.6,0-1.38-.276-1.2-2.76,2.438-6.072,4.876-9.89,5.152C63.043-1.84,61.847-3.174,62.261-5.152ZM81.213-.414A9.241,9.241,0,0,0,88.619-5.52c.644-1.288.828-2.346-.23-1.242-1.932,2.024-5.152,5.244-9.476,5.244a3.828,3.828,0,0,1-3.358-2.346A4.848,4.848,0,0,0,79.741-6.44c.506-1.334-.828-2.714-2.254-2.714a4.007,4.007,0,0,0-3.634,4.186,4.274,4.274,0,0,0,.23,1.334C75-.782,78.5-.276,81.213-.414ZM78.223-7.59c.506.506-.782,1.748-2.714,2.622C75.463-6.118,77.257-8.556,78.223-7.59Z" transform="translate(-4702 -7109)" fill="#999"/>
    <path id="Path_2555" data-name="Path 2555" d="M0,0H194" transform="translate(-4798.5 -7080.5)" fill="none" stroke="#999" stroke-width="1"/>
  </g>
</svg>
