<svg xmlns="http://www.w3.org/2000/svg" width="119.022" height="65" viewBox="0 0 119.022 65">
  <g id="btc" transform="translate(-5.359 -5.064)">
    <path id="Path_2397" data-name="Path 2397" d="M38.649,5.14A24.4,24.4,0,0,1,49.513,6.6a17.792,17.792,0,0,1,8.65,7.31A3.068,3.068,0,0,0,59.2,14.924,20.587,20.587,0,0,1,69.978,32.136a65.493,65.493,0,0,1-.054,11.39A20.665,20.665,0,0,1,59.7,59.688a6.142,6.142,0,0,0-1.822,1.741,17.424,17.424,0,0,1-11.421,7.718,41.209,41.209,0,0,1-18.771-.337A17.019,17.019,0,0,1,17.05,60.728a3.179,3.179,0,0,0-1.07-.952,21.414,21.414,0,0,1-7.975-8.144,20.587,20.587,0,0,1-2.629-9.875c.057-3.375-.115-6.767.074-10.125A19.814,19.814,0,0,1,9.625,20.709a20.563,20.563,0,0,1,6.584-5.737,2.771,2.771,0,0,0,.9-.985C20.489,8.5,25.551,5.8,31.8,5.174,34.056,4.948,36.358,5.14,38.649,5.14Zm-9.861,32.3h0c0,2.585.054,5.17-.027,7.762-.034,1.168.4,1.542,1.505,1.536q7.472-.04,14.941,0c1.012,0,1.377-.337,1.35-1.4-.044-5.167-.054-10.334,0-15.5,0-1.181-.378-1.5-1.492-1.488q-7.523.061-15.052,0c-.958,0-1.266.337-1.255,1.232C28.8,32.18,28.788,34.8,28.788,37.441ZM14.276,37.6c0-2.508-.02-5.012,0-7.519,0-.726-.213-1.063-.9-.709a19.106,19.106,0,0,0-3.331,1.9c-2.143,1.721-2.609,4.141-2.514,6.75A7.43,7.43,0,0,0,11.778,44.9a11.6,11.6,0,0,0,1.077.6,2.3,2.3,0,0,0,1.117.2c.145-.024.3-.53.3-.82.024-2.43.014-4.86.01-7.29Zm46.735,5.2h0c0,.648.041,1.3,0,1.937-.071.942.337.989,1.087.729,3.749-1.293,5.6-3.938,5.6-8.069a7.737,7.737,0,0,0-5.6-7.951c-.918-.337-1.093-.078-1.087.823.037,4.165.014,8.339.014,12.517ZM29.993,62.182a4.357,4.357,0,0,0,.138.51,7.321,7.321,0,0,0,6.976,4.8c3.449.121,6.3-.9,7.924-4.222.506-1.046.472-1.124-.715-1.124-3.159,0-6.318.024-9.477.034Zm7.7-49.543h0c2.278,0,4.559-.017,6.838,0,.675,0,.938-.138.6-.834-.911-1.9-2.19-3.5-4.3-3.945a18.562,18.562,0,0,0-4.948-.3,6.569,6.569,0,0,0-5.569,3.979c-.4.78-.4,1.131.651,1.1,2.241-.044,4.482,0,6.723,0Z" fill="#fff"/>
    <path id="Path_2398" data-name="Path 2398" d="M260.442,82.664c1.465.807,1.546,2.082,1.181,3.523-.216.847-.317,1.718-.52,2.568a3.688,3.688,0,0,1-3.544,3.017c-2.315.081-4.637.024-6.959.037-.759,0-1.036-.381-.9-1.09q1.5-7.715,3-15.43a1.307,1.307,0,0,1,1.509-1.191c1.9.04,3.8,0,5.707.017a2.7,2.7,0,0,1,2.744,2.268,8.1,8.1,0,0,1-1.07,5.251A5.842,5.842,0,0,1,260.442,82.664ZM255.278,88.5c1.63,0,1.779-.118,2.076-1.593.088-.445.2-.888.25-1.35.057-.54.283-1.32-.618-1.249-.715.057-1.853-.705-2.079.783a14.627,14.627,0,0,1-.462,2.339C254.11,88.448,254.505,88.654,255.278,88.5Zm1.374-7.347c1.525,0,1.617-.1,2-1.93.337-1.617.094-1.93-1.542-1.762a1.306,1.306,0,0,0-.834.746,18.719,18.719,0,0,0-.425,1.876C255.632,80.892,255.8,81.331,256.652,81.152Z" transform="translate(-161.858 -45.736)" fill="#fff"/>
    <path id="Path_2399" data-name="Path 2399" d="M330.57,78.823c-1.812,0-1.812,0-1.738-1.816.044-1.063-.813-1.718-1.687-1.134a3.169,3.169,0,0,0-1.168,1.792c-.614,2.7-1.1,5.427-1.62,8.15-.145.769-.277,1.62.759,1.839A1.537,1.537,0,0,0,327,86.417a.361.361,0,0,1,.034-.108c.715-2.254,1.12-2.5,3.466-2.18a.879.879,0,0,1,.877,1.063,6.136,6.136,0,0,1-8.464,5.5,4.066,4.066,0,0,1-2.616-4.836c.553-2.909,1.087-5.822,1.671-8.721a5.97,5.97,0,0,1,8.606-4.273,3.835,3.835,0,0,1,2.393,3.577C332.956,78.428,332.575,78.823,330.57,78.823Z" transform="translate(-208.585 -44.473)" fill="#fff"/>
    <path id="Path_2400" data-name="Path 2400" d="M296.908,77.616c-.753,0-1.35.027-1.964,0-.284-.02-.8-.169-.8-.256a9.143,9.143,0,0,1,.2-2.416,1.417,1.417,0,0,1,1.093-.776c2.774-.064,5.548-.04,8.326-.024.236,0,.675.175.675.263a8.561,8.561,0,0,1-.226,2.416,1.652,1.652,0,0,1-1.195.763c-2.049.182-2.025.148-2.4,2.116-.675,3.618-1.394,7.229-2.086,10.843a1.388,1.388,0,0,1-1.549,1.3c-2.815.027-2.832.054-2.308-2.7C295.385,85.352,296.138,81.558,296.908,77.616Z" transform="translate(-191.318 -45.754)" fill="#fff"/>
  </g>
</svg>
