<svg xmlns="http://www.w3.org/2000/svg" width="72.649" height="75" viewBox="0 0 72.649 75">
  <g id="business-solutions-01" transform="translate(-4.92 -9.37)">
    <path id="Path_2431" data-name="Path 2431" d="M220.226,9.375a6.037,6.037,0,0,1,2.715,1.878c1.883,1.982,3.817,3.915,5.7,5.9a2.208,2.208,0,0,0,1.451.71c2.322.273,4.645.556,6.967.881a2.376,2.376,0,0,1,1.163.519c2.993,2.583,5.958,5.2,8.942,7.8a1.553,1.553,0,0,1,.589,1.413c-.419,4.493-.861,8.987-1.23,13.484-.41,4.885-.738,9.776-1.1,14.664-.016.238,0,.478,0,.8.41,0,.775-.016,1.133,0a1.143,1.143,0,0,1,1.2,1.2c.019,2.322.014,4.645,0,6.957,0,.727-.46,1.093-1.157,1.249V83.139h-2.34v-16.3H230.212V83.151h-2.35V66.835c-.985-.179-1.219-.82-1.2-1.715.036-2,.011-4,.012-6,0-1.366.325-1.7,1.664-1.7h.683c0-1.171.008-2.309-.012-3.447a.626.626,0,0,0-.273-.389c-2.715-1.988-4.022-4.838-4.814-7.973-.316-1.246-.443-2.541-.66-3.813a.577.577,0,0,0-.063-.168c-.812.755-1.639,1.5-2.447,2.283-.855.831-1.366.82-2.232-.011-1.6-1.5-3.223-2.982-4.883-4.508a4.551,4.551,0,0,1-3.495,1.083,4.411,4.411,0,0,1-2.777-1.333c-1.761-1.787-1.792-4.293.093-7a6.86,6.86,0,0,1-1.027-.724c-1.312-1.312-2.6-2.648-3.881-3.989a1.176,1.176,0,0,1-.012-1.913q7.287-7.514,14.6-15.013a8.527,8.527,0,0,1,1.913-1.123Zm22.883,48.033c0-1.377-.1-2.7.016-4,.7-8.09,1.456-16.177,2.165-24.267a1.261,1.261,0,0,0-.387-.9c-2.568-2.3-5.156-4.555-7.752-6.819-.163-.137-.342-.335-.534-.362-1.5-.22-3.015-.41-4.731-.628.306.342.458.522.622.69q2.037,2.1,4.078,4.2c.861.891.869,1.357.023,2.234-1.609,1.668-3.239,3.316-4.828,5a1.685,1.685,0,0,0-.4,1.012c-.046,1.317,0,2.635-.03,3.952a1.4,1.4,0,0,0,.486,1.143c.913.865,1.794,1.764,2.659,2.62l-1.689,1.768-9.588-9.632L221.343,35.2c1.183,1.18,2.387,2.322,3.5,3.536a2.615,2.615,0,0,1,.633,1.459,24.145,24.145,0,0,0,1.373,6.932c1.209,3.129,3.111,5.465,6.8,5.63v2.354l-2.243-.257v2.555ZM234.43,26.543c-.157-.2-.2-.262-.246-.314q-6.776-6.984-13.562-13.966c-.727-.747-1.268-.716-2.049.083q-6.605,6.8-13.208,13.592c-.161.167-.306.348-.467.531.153.169.262.3.38.419q2.011,2.078,4.025,4.15c1.141,1.175,1.142,1.5.026,2.656a4.354,4.354,0,0,0-.561.669,2.425,2.425,0,0,0,1.672,3.79,2.58,2.58,0,0,0,2.15-1.037c1.1-1.161,1.473-1.119,2.633,0,1.5,1.451,3.07,2.846,4.527,4.191l2.26-2.134c-1.038-1.031-2.066-2.037-3.075-3.062a1.162,1.162,0,0,1-.051-1.855c1.107-1.137,2.217-2.269,3.376-3.351a2.993,2.993,0,0,1,1.108-.41,2.894,2.894,0,0,0,.82-.234,4.6,4.6,0,0,1,5.584-.025c.171.128.339.261.51.392l-.13-.178Zm-5.364,33.25v4.6H245.38v-4.6Zm-.052-24.06v-2.2a1.639,1.639,0,0,0-1.2-1.75,1.947,1.947,0,0,0-2.245.512Z" transform="translate(-170.197)" fill="#fff"/>
    <path id="Path_2432" data-name="Path 2432" d="M30.694,221.5h5.8c.474-2.95,2.238-4.664,4.754-4.645,2.466.016,4.269,1.776,4.72,4.682H52.61c1.108.007,1.51.4,1.519,1.485v20.359c0,2.536-1.4,3.935-3.945,3.935H8.882c-2.583,0-3.962-1.391-3.962-3.988V202.1c0-2.634,1.376-4,4.027-4H29.01c1.344,0,1.683.34,1.684,1.684v7.323c0,1.148-.391,1.531-1.538,1.538h-.732a2.353,2.353,0,0,0-2.413,2.25,2.464,2.464,0,0,0,2.354,2.43c.316.016.634,0,.956.007.956.019,1.373.439,1.377,1.4.008,2,0,4,0,6.011Zm-2.387-15.263v-5.8H8.814c-1.182,0-1.553.383-1.553,1.592v18.808c0,.212.022.424.037.691h6.835c.924,0,1.318.41,1.329,1.342,0,.317-.014.635,0,.956a2.509,2.509,0,0,0,2.322,2.391,2.5,2.5,0,0,0,2.346-2.37c.025-.34,0-.683.008-1.025a1.141,1.141,0,0,1,1.307-1.288h6.894V215.71c-2.8-.385-4.612-2.186-4.683-4.583C23.591,208.561,25.258,206.8,28.307,206.238Zm2.444,32.9v5.828H50.187c1.23,0,1.6-.37,1.6-1.622V224.613c0-.234-.022-.467-.034-.734H45.1c-1.108,0-1.5-.4-1.518-1.482,0-.317.015-.637-.012-.956a2.463,2.463,0,0,0-2.451-2.249,2.358,2.358,0,0,0-2.223,2.363v.8c-.008,1.105-.4,1.511-1.489,1.514H30.7v5.6a.72.72,0,0,0,.055.2c2.952.358,4.685,2.241,4.623,5.017A4.745,4.745,0,0,1,30.752,239.142Zm-23.5-15.236v19.371c0,1.351.339,1.693,1.676,1.693H28.351V238.45c0-1.388.287-1.68,1.639-1.682.245,0,.49.012.732-.011a2.336,2.336,0,1,0-.075-4.671c-.273-.018-.537,0-.806,0-1.134,0-1.5-.355-1.5-1.466v-6.737H22.524a4.784,4.784,0,0,1-4.317,4.685c-2.817.12-4.67-1.544-5.163-4.661Z" transform="translate(0 -162.946)" fill="#fff"/>
    <path id="Path_2433" data-name="Path 2433" d="M108.909,106.354H99.63V104.09h9.279Z" transform="translate(-81.771 -81.78)" fill="#fff"/>
    <path id="Path_2434" data-name="Path 2434" d="M126.93,44.764l-1.395,1.454-5.825-5.824L121.164,39Z" transform="translate(-99.108 -25.582)" fill="#fff"/>
    <path id="Path_2435" data-name="Path 2435" d="M121.273,140.058l-1.473-1.381,5.828-5.827,1.418,1.5Z" transform="translate(-99.185 -106.611)" fill="#fff"/>
    <path id="Path_2436" data-name="Path 2436" d="M73.76,509.4V507.14H85.385V509.4Z" transform="translate(-59.435 -429.766)" fill="#fff"/>
    <path id="Path_2437" data-name="Path 2437" d="M39.64,507h2.227v2.279H39.64Z" transform="translate(-29.977 -429.645)" fill="#fff"/>
  </g>
</svg>
