<svg xmlns="http://www.w3.org/2000/svg" width="100" height="100" viewBox="0 0 100 100">
  <g id="Group_321" data-name="Group 321" transform="translate(-1350 -1228)">
    <circle id="Ellipse_109" data-name="Ellipse 109" cx="50" cy="50" r="50" transform="translate(1350 1228)" fill="#fff"/>
    <path id="Icon_material-phone-in-talk" data-name="Icon material-phone-in-talk" d="M35.33,27.169a20.6,20.6,0,0,1-6.474-1.034,1.851,1.851,0,0,0-1.85.435l-3.99,3.99A27.285,27.285,0,0,1,11.065,18.609l3.99-4.008a1.741,1.741,0,0,0,.453-1.814,20.6,20.6,0,0,1-1.034-6.474A1.819,1.819,0,0,0,12.661,4.5H6.314A1.819,1.819,0,0,0,4.5,6.314a30.827,30.827,0,0,0,30.83,30.83,1.819,1.819,0,0,0,1.814-1.814V28.983A1.819,1.819,0,0,0,35.33,27.169Zm-1.814-6.347h3.627A16.323,16.323,0,0,0,20.822,4.5V8.127A12.685,12.685,0,0,1,33.516,20.822Zm-7.254,0h3.627a9.071,9.071,0,0,0-9.068-9.068v3.627A5.433,5.433,0,0,1,26.262,20.822Z" transform="translate(1379.5 1257.5)" fill="#0a8bc4"/>
  </g>
</svg>
