<svg xmlns="http://www.w3.org/2000/svg" width="86.974" height="65" viewBox="0 0 86.974 65">
  <g id="cb-01" transform="translate(-6.121 -9.448)">
    <path id="Path_2370" data-name="Path 2370" d="M77.528,44.694H91.618a5.208,5.208,0,0,1,1.138.121c.114.025.25.26.25.4a.507.507,0,0,1-.26.393,5.641,5.641,0,0,1-1.141.111H78.681c-4.525,0-9.048-.059-13.57.028a12.707,12.707,0,0,1-5.861-1.2,17.216,17.216,0,0,0-6.507-1.855,14.821,14.821,0,0,0-8.766,1.966c-.037.022-.093.025-.114.056-.813,1.057-1.954,1.017-3.131,1.011-6.247-.025-12.494,0-18.741,0a6.49,6.49,0,0,1-.776,0,.9.9,0,0,0-.986.618A10.077,10.077,0,0,1,19.082,48.2c-.522.618-.85.538-1.261-.17a13.953,13.953,0,0,0-1-1.635c-1.447-1.855-3.345-1.193-4.513-.167a6.029,6.029,0,0,0-1.938,4.195,14.259,14.259,0,0,0,.519,5.607,9.867,9.867,0,0,0,1.261,2.652,3.717,3.717,0,0,0,4.018,1.465A4.865,4.865,0,0,0,19.833,57.8a2.136,2.136,0,0,1,.43-.42c.139.241.4.485.4.72a4.541,4.541,0,0,1-1.184,2.915,5.042,5.042,0,0,1-3.246,1.694,11.242,11.242,0,0,1-4.1-.133A7.017,7.017,0,0,1,7.3,58.458a12.565,12.565,0,0,1-1.079-6.912,10.655,10.655,0,0,1,2.052-5.2,8.191,8.191,0,0,1,5.96-3.4,6.859,6.859,0,0,1,2.522.331c.853.244,1.638.711,2.473,1.042a3.851,3.851,0,0,0,1.332.359q9.95.031,19.9,0c.853,0,.893-.019.866-.835a31.371,31.371,0,0,1,1.06-8.655c.062-.25.213-.538.145-.748-.454-1.382.309-2.507.745-3.691.9-2.408,1.9-4.779,2.72-7.212a14.349,14.349,0,0,0,.822-4.791,5.19,5.19,0,0,1,.121-1.017,2.548,2.548,0,0,0-.263-1.981A3.593,3.593,0,0,1,46.345,13a1.481,1.481,0,0,0,0-.844,1.681,1.681,0,0,1,1.369-2.451,21.417,21.417,0,0,1,5.011-.219,9.029,9.029,0,0,1,1.9.229A1.625,1.625,0,0,1,56.1,11.934a3.119,3.119,0,0,0-.031,1.221,3.466,3.466,0,0,1-.377,2.618,2.056,2.056,0,0,0-.235,1.731,4.482,4.482,0,0,1,.117,1.017A18.547,18.547,0,0,0,57,25.266c.819,2.028,1.657,4.046,2.393,6.1a5.106,5.106,0,0,1,.491,3.11c-.17.7.328,1.546.464,2.355.182,1.051.331,2.111.439,3.171.111,1.107.151,2.222.238,3.332a1.46,1.46,0,0,0,1.394,1.274,10.779,10.779,0,0,0,1.546.056Q70.743,44.7,77.528,44.694Z" fill="#fff"/>
    <path id="Path_2371" data-name="Path 2371" d="M79.39,200.6H50.56c-1.607,0-1.453.182-1.456-1.444v-6.077c0-.927.09-1,1.051-1.02h57.924c1.722,0,1.546-.21,1.546,1.487v6.207c0,.825-.022.828-.881.85h-.776Zm13.125-4.056H92.5a10.537,10.537,0,0,0,0-1.289c-.093-.733-.411-.977-1.141-.9-.334.04-.776.352-.961.229-.927-.618-1.923.359-2.828-.192-.053-.031-.417.281-.4.328a7.892,7.892,0,0,1,.2,2.8c.034.436.294.473.618.445s.383-.269.346-.553a8.235,8.235,0,0,1-.151-1.521,1.487,1.487,0,0,1,.473-.841c.309-.309.646-.185.794.213a3.709,3.709,0,0,1,.136,2.164c-.077.337.083.488.374.532s.5-.071.5-.411v-1.289a1.962,1.962,0,0,1,.031-.767,1.128,1.128,0,0,1,.578-.563c.309-.108.436.176.485.451.065.377.148.751.185,1.131s-.031.7.025,1.029c.028.158.238.281.365.42.136-.127.362-.238.386-.383a6.011,6.011,0,0,0,0-1.042Zm-39.94-2.964h-.386c-.773.031-.779.034-.791.807v2.581c0,1.2.309,1.453,1.471,1.184a3.827,3.827,0,0,0,.618-.189,1.274,1.274,0,0,0,.461-2.164c-.238-.244-.34-.287-.145-.661.522-1,.164-1.518-.964-1.564C52.748,193.582,52.662,193.582,52.575,193.582Zm21.882.893a1.329,1.329,0,0,0-1.329,1.95c.148.359.309.634.065,1.057s-.031.739.482.816a9.992,9.992,0,0,1,1.236.253.362.362,0,0,1,0,.7,1.923,1.923,0,0,1-.872-.04c-.223-.077-.374-.343-.584-.482a1.236,1.236,0,0,0-.442-.09,1.6,1.6,0,0,0-.031.575c.046.133.235.232.377.309a2.016,2.016,0,0,0,2.083-.037,1.323,1.323,0,0,0,.649-.853c.059-.389-.309-.7-.711-.788s-.76-.08-1.141-.142c-.105-.019-.192-.136-.287-.21.1-.1.185-.26.309-.291,1.388-.334,1.379-.331,1.471-1.74a2.037,2.037,0,0,1,.278-.618l.139-.309a1.15,1.15,0,0,0-.343-.114c-.464,0-.906.022-1.351.04Zm19.434,2.816H93.8v.516c0,.47,0,.946.034,1.413,0,.114.238.309.309.294a.884.884,0,0,0,.427-.337.618.618,0,0,0,0-.377c-.08-.6.13-.859.773-.828a1.55,1.55,0,0,0,1.363-1.014,1.805,1.805,0,0,0-.167-1.947,1.437,1.437,0,0,0-1.583-.572,4.052,4.052,0,0,1-.964-.028c-.331,0-.464.142-.42.473C93.7,195.684,93.8,196.485,93.891,197.292Zm-21.842-.72h0a8.8,8.8,0,0,0,0-1.029c-.117-1.017-.584-1.351-1.576-1.085-.291.08-.51.213-.828.034-.189-.108-.482-.028-.729-.034,0,.226.034.448.04.671,0,.556.025,1.116.037,1.672a5.036,5.036,0,0,0,.04.893.454.454,0,0,0,.352.266.479.479,0,0,0,.368-.244,2.071,2.071,0,0,0,.034-.637c0-.473,0-.927,0-1.416a.713.713,0,0,1,.757-.7c.43-.031.541.346.55.714s0,.77,0,1.156v.773c.025.346.284.427.544.359a.6.6,0,0,0,.4-.362,5.975,5.975,0,0,0,.028-1.032Zm14.528-.216a1.951,1.951,0,0,0-1.669-1.938,1.9,1.9,0,0,0-.068,3.805,1.946,1.946,0,0,0,1.746-1.858Zm17.82.127h0a8.537,8.537,0,0,0,0-1.289c-.068-.433-.275-.9-.816-.81a4.036,4.036,0,0,1-2.083.022c-.077-.028-.352.223-.337.263a9.942,9.942,0,0,1,.207,2.93.389.389,0,0,0,.538.371c.161-.04.408-.229.408-.349,0-.55-.1-1.1-.148-1.654a.989.989,0,0,1,.757-1.042c.309-.065.618.219.7.763a5.872,5.872,0,0,1,.028.9,5.707,5.707,0,0,0,.034,1.029c.025.136.26.278.427.309.074.022.291-.182.309-.309a11.141,11.141,0,0,0-.022-1.144ZM58.4,196.327a1.946,1.946,0,0,0-1.7-1.92,1.9,1.9,0,0,0-.025,3.8A1.952,1.952,0,0,0,58.4,196.327Zm21.418-.745h0v-.13a1.4,1.4,0,0,1,.714-1.527c.578-.272.971.068,1.332.479a.454.454,0,0,0,.389-.028c.053-.176.108-.473,0-.547a1.738,1.738,0,0,0-1.91-.349,2.347,2.347,0,0,0-1.317,3.382,1.991,1.991,0,0,0,3.357.535,1.366,1.366,0,0,0,.148-.309.928.928,0,0,0-.328.04c-1.471.794-2.3.352-2.389-1.28C79.82,195.746,79.823,195.666,79.823,195.582Zm18.7-1.2a3.472,3.472,0,0,0-.714.309c-.121.077-.13.331-.192.507a2.3,2.3,0,0,0,.572.071c.093,0,.158-.192.247-.281.34-.34.677-.272.8.164s-.019.665-.5.807a4.416,4.416,0,0,0-.723.241.961.961,0,0,0-.559,1.165.946.946,0,0,0,1.017.618c.291-.028.566-.185.856-.232.352-.059.785.488,1.036,0,.139-.269-.077-.717-.105-1.085-.025-.309,0-.6-.015-.906C100.166,194.748,99.764,194.374,98.527,194.38Zm7.02,5.425c.145-.056.34-.071.445-.179a3.119,3.119,0,0,0,.733-.878c.541-1.261,1.032-2.541,1.521-3.824.1-.263.04-.538-.309-.535-.247,0-.309.151-.325.42a12.209,12.209,0,0,1-.4,1.706c0,.056-.136.114-.2.111a.263.263,0,0,1-.195-.13,14.155,14.155,0,0,0-.559-1.57,1.236,1.236,0,0,0-.618-.529.269.269,0,0,0-.352.359c.325.927.658,1.855,1.023,2.757.4.989.136,1.45-.955,1.592-.105,0-.281.1-.281.145a.559.559,0,0,0,.155.331,1.725,1.725,0,0,0,.321.223ZM59.4,196.42a7.384,7.384,0,0,1,0,.831c-.09.729.47,1.193,1.267.875.207-.08.352-.309.525-.473a3.216,3.216,0,0,1-.575-.031c-.114-.022-.309-.117-.309-.195q-.093-.955-.124-1.91c0-.488.479-.4.726-.6.065-.053.127-.108.189-.164-.062-.04-.13-.121-.189-.117a.98.98,0,0,1-.859-.436c-.269-.309-.556-.019-.754.2-.114.127-.257.43-.213.473C59.58,195.354,59.354,195.941,59.4,196.42Zm6.235-.723h0c0-.686.025-1.372,0-2.052a1.1,1.1,0,0,0-.272-.674.72.72,0,0,0-.581-.049c-.077.022-.133.284-.124.433.056.887.145,1.774.2,2.661.028.47,0,.927,0,1.413,0,.263,0,.529.368.553s.427-.2.423-.488Zm-3.579.584H62v.906a.955.955,0,0,0,.686.983,1.011,1.011,0,0,0,1.159-.343,1.519,1.519,0,0,0,.127-.216.885.885,0,0,0-.213-.1c-.961-.142-.964-.139-.977-.971a9.585,9.585,0,0,1,0-1.032.8.8,0,0,1,.216-.439c.185-.195.686.13.665-.343,0-.093-.516-.161-.791-.247-.034,0-.059-.059-.077-.1-.161-.309-.377-.309-.618-.093s-.464.309-.309.726A5.255,5.255,0,0,1,62.052,196.281Zm5.647.145h-.022c0-.467.025-.927,0-1.4-.028-.408-.359-.42-.668-.38-.4.053-.26.309-.216.559a13.012,13.012,0,0,1,.121,1.385,8.523,8.523,0,0,0,.028,1.017c.028.145.26.359.386.349a.541.541,0,0,0,.362-.383,8.287,8.287,0,0,0,.022-1.144Zm-.485-2.226c.2-.287.4-.461.423-.652,0-.127-.278-.42-.365-.4-.2.056-.467.244-.495.411S67,193.932,67.215,194.2Z" transform="translate(-29.694 -126.16)" fill="#fff"/>
    <path id="Path_2372" data-name="Path 2372" d="M170.309,142.763c0,.946-.025,1.895,0,2.838a7.837,7.837,0,0,0,.232,1.515c.352,1.462,1.19,1.9,2.572,1.382.278-.108.535-.272.807-.4a1.261,1.261,0,0,0,.779-1.326c-.062-1.505,0-3.011-.034-4.519,0-.59-.142-1.184-.2-1.774a1.66,1.66,0,0,0-.791-1.394.45.45,0,0,1-.062-.828,3.61,3.61,0,0,1,3.4-.618,1.518,1.518,0,0,1,1.054,1.345,6.727,6.727,0,0,1,.028.9c.074,2.615.139,5.233.223,7.848.037,1.165.216,1.363,1.36,1.666a2.079,2.079,0,0,1,.368.1.436.436,0,0,1,.04.807,8.51,8.51,0,0,1-1.938.618,2.488,2.488,0,0,1-2.93-1.323c-.213-.427-.374-.442-.754-.139a6.125,6.125,0,0,1-4.389,1.505,3.341,3.341,0,0,1-3.122-3.184c-.031-1.332,0-2.668-.046-4-.037-1.07-.127-2.136-.229-3.2a1.651,1.651,0,0,0-.853-1.351c-.485-.291-.495-.59-.093-.906a3.787,3.787,0,0,1,3.4-.748c.906.241,1.15,1.1,1.181,1.947.04,1.073,0,2.164,0,3.227Z" transform="translate(-110.072 -88.431)" fill="#fff"/>
    <path id="Path_2373" data-name="Path 2373" d="M94.806,145.885V142.4c0-1.255-.04-2.5-1.107-3.434a.572.572,0,0,1-.019-.553,3.733,3.733,0,0,1,3.561-.751,3.141,3.141,0,0,1,.745.7,4.7,4.7,0,0,1,.4.711c.25-.164.5-.325.748-.5a7.016,7.016,0,0,1,2.532-1.218,3.4,3.4,0,0,1,4,2.352,8.488,8.488,0,0,1,.281,2.031c.037,1.592-.028,3.187,0,4.779.031,1.113.176,2.219.25,3.329.049.711.028.733-.686.748s-1.465.019-2.2,0-.739-.034-.748-.742c-.022-1.508,0-3.014,0-4.522a24.418,24.418,0,0,0-.2-3.852c-.269-1.635-1.042-1.716-2.519-1.382a5.339,5.339,0,0,0-1.236.7.872.872,0,0,0-.439.866,45.63,45.63,0,0,0,.2,5.919,13.5,13.5,0,0,1,.068,2.451c0,.6-.164.751-.779.779-.686.031-1.379.019-2.065,0-.773-.019-.816-.053-.822-.794v-4.136Z" transform="translate(-60.451 -88.314)" fill="#fff"/>
    <path id="Path_2374" data-name="Path 2374" d="M249.925,157.055a2.418,2.418,0,0,1-2.612-1.978,1.381,1.381,0,0,1,.046-.98c.272-.346.581.114.884.185,2.071.485,3.091.2,3.87-1.654.133-.309.241-.643.38-.955.377-.835.9-1.685-.309-2.315a24.91,24.91,0,0,1-1.057-2.328c-.559-1.66-1.054-3.345-1.546-5.029a6.8,6.8,0,0,0-2.025-3.369c-.479-.423-.473-.7.056-1,1.011-.581,2.077-1.11,3.239-.377a2.383,2.383,0,0,1,.878.884,20.8,20.8,0,0,1,.927,2.383c.6,1.737,1.168,3.487,1.756,5.227a1.512,1.512,0,0,0,.2.309c.09-.087.229-.158.266-.263.618-1.855,1.28-3.709,1.855-5.607a1.972,1.972,0,0,0-.2-1.743.6.6,0,0,1,.257-.961,4.637,4.637,0,0,1,1.422-.569,1.153,1.153,0,0,1,1.394,1.468,20.5,20.5,0,0,1-.853,2.556c-1.236,3.193-2.473,6.386-3.771,9.561a18.827,18.827,0,0,1-1.963,4.328,14.784,14.784,0,0,1-1.456,1.626A2.059,2.059,0,0,1,249.925,157.055Z" transform="translate(-166.563 -88.037)" fill="#fff"/>
    <path id="Path_2375" data-name="Path 2375" d="M62.109,144.329c-1.2-.071-2.393-.173-3.589-.207-.859-.025-.85,0-.866.856a3.74,3.74,0,0,0,2.89,3.895,3.36,3.36,0,0,0,2.343-.436,19.407,19.407,0,0,0,2-1.391c.266-.189.488-.093.535.238a2.451,2.451,0,0,1-.791,2.1,6.035,6.035,0,0,1-7.864.875c-2.26-1.487-2.909-3.765-2.652-6.287a7.7,7.7,0,0,1,1.92-4.417,5.168,5.168,0,0,1,7.913-.219,5.382,5.382,0,0,1,1.236,4.077.671.671,0,0,1-.655.665c-.8.114-1.607.223-2.411.334Zm-2.847-1.57v.083c.714-.1,1.428-.2,2.145-.291a.4.4,0,0,0,.383-.535,5.7,5.7,0,0,0-.677-1.771,1.417,1.417,0,0,0-2.532,0,3.991,3.991,0,0,0-.618,1.264c-.389,1.236-.371,1.252.893,1.236Z" transform="translate(-33.12 -88.538)" fill="#fff"/>
    <path id="Path_2376" data-name="Path 2376" d="M136.812,140.377v-3.62a1.566,1.566,0,0,0-.961-1.657c-.334-.136-.692-.355-.556-.739a1.236,1.236,0,0,1,.7-.658,2.652,2.652,0,0,0,1.765-1.564.646.646,0,0,1,.689-.457h1.422c.476,0,.572.272.522.671s-.1.828-.155,1.236a9.086,9.086,0,0,0,1.376.133,11.776,11.776,0,0,0,1.765-.247c.43-.087.618.028.643.47a1.6,1.6,0,0,1-1.49,1.644c-.51.059-1.032.015-1.546.028-.8.022-.825.025-.828.76,0,2.164-.034,4.312,0,6.463.028,1.508,1,2.164,2.448,1.7.448-.142.853-.411,1.289-.593s.618-.04.649.445a2.009,2.009,0,0,1-.9,1.765,5.082,5.082,0,0,1-4.13.983,3.178,3.178,0,0,1-2.726-3.27c-.031-.6,0-1.206,0-1.808v-1.682Z" transform="translate(-89.224 -84.447)" fill="#fff"/>
    <path id="Path_2377" data-name="Path 2377" d="M213.729,144.788c0-1.376-.019-2.754,0-4.13a2.5,2.5,0,0,0-.85-2.062c-.467-.417-.433-.665.093-.964a4.81,4.81,0,0,1,2.315-.683,1.587,1.587,0,0,1,1.777,1.159c.182.618.4.383.671.114s.566-.529.838-.8a2.756,2.756,0,0,1,2.516-.671,1.654,1.654,0,0,1,1.44,1.28,1.953,1.953,0,0,1-.785,2.164.981.981,0,0,1-1.416-.266,1.451,1.451,0,0,0-2.457.2,5.719,5.719,0,0,0-.757,2.949,25.7,25.7,0,0,0,.43,6.528c.1.445-.1.637-.547.618h-2.324c-.779,0-.909-.136-.927-.9-.028-1.508,0-3.014,0-4.522Z" transform="translate(-142.621 -87.916)" fill="#fff"/>
    <path id="Path_2378" data-name="Path 2378" d="M59.767,205.444c.037-.284-.151-.7.278-.844a.7.7,0,0,1,.563.155.949.949,0,0,1,.161,1.165c-.1.207-.467.287-.714.427-.1-.207-.2-.411-.281-.618A.9.9,0,0,1,59.767,205.444Z" transform="translate(-37.056 -134.822)" fill="#fff"/>
    <path id="Path_2379" data-name="Path 2379" d="M60.026,198a1.338,1.338,0,0,1,.346.185.794.794,0,0,1,.093,1.051.519.519,0,0,1-.417.21c-.105-.019-.235-.229-.253-.368a2.918,2.918,0,0,1,.022-.77A1.274,1.274,0,0,1,60.026,198Z" transform="translate(-37.071 -130.269)" fill="#fff"/>
    <path id="Path_2380" data-name="Path 2380" d="M129.882,201.683v.127c-.019.6-.269,1.026-.584,1.008-.4-.025-.807-.7-.73-1.206.087-.563.519-1.125.813-1.014C129.879,200.787,129.876,201.244,129.882,201.683Z" transform="translate(-84.591 -132.054)" fill="#fff"/>
    <path id="Path_2381" data-name="Path 2381" d="M196.3,202.4v-.51c0-.291-.056-.618.349-.708a.767.767,0,0,1,.856.4,1.926,1.926,0,0,1-.309,2.207.5.5,0,0,1-.872-.253,7.385,7.385,0,0,1,0-1.141Z" transform="translate(-131.394 -132.457)" fill="#fff"/>
    <path id="Path_2382" data-name="Path 2382" d="M163.664,202.715c-.124.893-.309,1.311-.742,1.28-.618-.043-.618-.618-.825-1.026a1.545,1.545,0,0,1,.065-1.481c.232-.433.618-.529.9-.124A7.385,7.385,0,0,1,163.664,202.715Z" transform="translate(-107.653 -132.415)" fill="#fff"/>
    <path id="Path_2383" data-name="Path 2383" d="M72.461,202.683c0,.961-.185,1.382-.618,1.354-.618-.037-.646-.618-.822-1.02a2.043,2.043,0,0,1-.139-.875c.028-.553.352-1.008.658-.967a1.037,1.037,0,0,1,.847.862A3.129,3.129,0,0,1,72.461,202.683Z" transform="translate(-44.74 -132.46)" fill="#fff"/>
    <path id="Path_2384" data-name="Path 2384" d="M208.678,206.13c-.034.6-.247.838-.618.72a1,1,0,0,1-.6-.529c-.087-.266.618-.782.927-.662C208.552,205.728,208.626,206.037,208.678,206.13Z" transform="translate(-139.1 -135.548)" fill="#fff"/>
  </g>
</svg>
