<svg xmlns="http://www.w3.org/2000/svg" width="70" height="70.209" viewBox="0 0 70 70.209">
  <g id="craft-01" transform="translate(-4.226)">
    <path id="Path_2417" data-name="Path 2417" d="M22.906,142.5a6.859,6.859,0,0,1-3.478-2.3c-.635-.688-1.327-1.323-1.98-1.995a1.382,1.382,0,1,1,1.941-1.95c.933.91,1.84,1.845,2.769,2.758a1.888,1.888,0,0,0,2.99-.012c.673-.656,1.33-1.322,1.989-1.987,1.077-1.077,1.049-1.949-.026-3.031-2.462-2.479-4.9-4.98-7.364-7.46q-3.23-3.259-6.5-6.491a11.241,11.241,0,0,0-1.026-.9,1.7,1.7,0,0,0-2.1.135c-.919.855-1.82,1.736-2.669,2.661a1.794,1.794,0,0,0,.188,2.588c.956.984,1.94,1.938,2.9,2.914a1.315,1.315,0,0,1,.308,1.569,1.215,1.215,0,0,1-1.314.783,1.8,1.8,0,0,1-.956-.451c-1.061-1.007-2.105-2.033-3.107-3.1a4.532,4.532,0,0,1-.022-6.221c.87-.942,1.771-1.851,2.718-2.711a4.543,4.543,0,0,1,4.6-.992.9.9,0,0,0,.719-.052c1.368-1.315,2.7-2.664,4.038-4,.094-.094.178-.2.269-.3a4.927,4.927,0,0,1,1.591-8.211,4.906,4.906,0,0,1,3-7.394,4.956,4.956,0,0,1,.525-3.743A4.846,4.846,0,0,1,25.882,90.4a14.043,14.043,0,0,1,.135-2.487,4.759,4.759,0,0,1,5.777-3.54,1.186,1.186,0,0,0,.836-.17,4.8,4.8,0,0,1,3.832-.482c2.961.538,5.923,1.127,8.884,1.669.556.1,1.141.042,1.7.135a4.728,4.728,0,0,1,4,5.575c-.022.135-.03.269-.05.471a4.984,4.984,0,0,1,3.057,2.226,4.92,4.92,0,0,1,.538,3.75,5.018,5.018,0,0,1,3.659,6.085,4.754,4.754,0,0,1,3.559,3.508,4.8,4.8,0,0,1-1.45,4.8l3.365,3.365a3.1,3.1,0,0,1,.337.342,1.428,1.428,0,0,0,1.894.53,4.119,4.119,0,0,1,4.266.966c.962.875,1.884,1.8,2.767,2.755a4.489,4.489,0,0,1-.069,6.268q-7.43,7.5-14.941,14.923a4.532,4.532,0,0,1-6.426-.044c-.822-.793-1.637-1.6-2.423-2.423a4.452,4.452,0,0,1-1-5.053.639.639,0,0,0-.191-.818c-1.657-1.638-3.3-3.294-4.96-4.929a1.077,1.077,0,0,0-.631-.307c-1.481-.061-2.961-.089-4.45-.118a6.2,6.2,0,0,0-1.5.036,3.174,3.174,0,0,0-1.438.658c-1.561,1.481-3.051,3.025-4.583,4.529a.63.63,0,0,0-.156.868,4.49,4.49,0,0,1-.849,5.2,25.132,25.132,0,0,1-2.489,2.45,16.619,16.619,0,0,1-2.474,1.372Zm-7.348-24.363,12.684,12.751c1.569-1.576,3.194-3.183,4.789-4.816a4.345,4.345,0,0,1,3.1-1.4,33.972,33.972,0,0,1,3.831.071c2.232.2,4.218-.085,5.7-2.019a1.326,1.326,0,0,1,2.049-.135,1.419,1.419,0,0,1-.11,2.07c-.591.673-1.141,1.37-1.644,1.979l4.2,4.24,12.454-12.5-4.329-4.368c-.279.269-.588.606-.942.888a1.346,1.346,0,0,1-1.987-.28,1.384,1.384,0,0,1,.253-1.858c.992-1.011,2.019-1.989,3-3.012a2,2,0,0,0,.017-2.839,2.035,2.035,0,0,0-2.843-.04c-.376.331-.712.708-1.077,1.057a1.395,1.395,0,1,1-1.934-1.961c.738-.75,1.5-1.473,2.22-2.24a2.022,2.022,0,1,0-2.878-2.841c-.4.372-.778.773-1.17,1.156a1.442,1.442,0,0,1-2.167.175,1.415,1.415,0,0,1,.206-2.115c.817-.831,1.669-1.629,2.454-2.489a1.977,1.977,0,0,0-.109-2.827,2.016,2.016,0,0,0-2.793.044c-.386.355-.744.74-1.119,1.11-.785.775-1.615.879-2.218.28s-.529-1.442.242-2.216,1.521-1.517,2.28-2.277a1.969,1.969,0,0,0,.619-1.738,1.938,1.938,0,0,0-1.354-1.656,1.959,1.959,0,0,0-2.135.538c-1.156,1.139-2.288,2.3-3.453,3.431a.713.713,0,0,0-.186.98,4.746,4.746,0,0,1-2.827,6.5,13.906,13.906,0,0,1-1.493.315c-.026.11-.065.241-.085.373a4.66,4.66,0,0,1-4.361,4.342c-.411.058-.447.269-.482.588a4.7,4.7,0,0,1-4.173,4.227c-.2.024-.389.071-.538.1a14.287,14.287,0,0,1-.31,1.466,4.8,4.8,0,0,1-6.559,2.868c-.2-.09-.58-.135-.7-.024-1.431,1.376-2.824,2.789-4.131,4.1Zm39.249,21.647a7.132,7.132,0,0,0,1.416-.851q7.294-7.232,14.545-14.512a1.839,1.839,0,0,0,.018-2.836q-1.1-1.131-2.232-2.224a1.836,1.836,0,0,0-2.793-.013q-7.32,7.3-14.627,14.617a1.82,1.82,0,0,0-.012,2.739c.759.79,1.522,1.579,2.337,2.31A7.7,7.7,0,0,0,54.807,139.784Zm-23.1-37.7a2.115,2.115,0,0,0,2.167-1.168,2.01,2.01,0,0,0-.452-2.33q-2.439-2.462-4.9-4.885a2.019,2.019,0,1,0-2.864,2.841c1.615,1.646,3.241,3.284,4.9,4.883A4.653,4.653,0,0,0,31.706,102.082ZM28.5,89.142a7.589,7.589,0,0,0,.789,1.373c.673.77,1.438,1.464,2.164,2.19,1.307,1.306,2.6,2.626,3.928,3.912a2.014,2.014,0,0,0,3.318-.524,1.542,1.542,0,0,0-.848-2.238,11.364,11.364,0,0,1-5.885-5.923,1.257,1.257,0,0,0-1.446-.917A2.236,2.236,0,0,0,28.5,89.142Zm.824,15.7a3.773,3.773,0,0,0-.507-1.158c-1.346-1.423-2.728-2.827-4.159-4.173a1.941,1.941,0,0,0-2.676.152,1.891,1.891,0,0,0-.16,2.617c1.357,1.454,2.767,2.859,4.216,4.205a1.794,1.794,0,0,0,2.124.171A2.134,2.134,0,0,0,29.321,104.842Zm-10.335,3.634a1.831,1.831,0,0,0,.254.77,17.5,17.5,0,0,0,2.275,2.226,1.85,1.85,0,0,0,2.407-.459A1.93,1.93,0,0,0,24,108.5a14.483,14.483,0,0,0-1.783-1.782,1.834,1.834,0,0,0-2.115-.2,2.05,2.05,0,0,0-1.12,1.963ZM42.033,87.569c-2.508-.377-4.98-1.109-7.707-1.272a8.847,8.847,0,0,0,4.154,4.846Z" transform="translate(0 -72.297)" fill="#f27121"/>
    <path id="Path_2418" data-name="Path 2418" d="M88.256,2.75a3.456,3.456,0,0,1,.872.5c1.634,1.59,3.245,3.2,4.846,4.824a1.384,1.384,0,1,1-1.936,1.963C90.4,8.422,88.775,6.788,87.147,5.161a1.36,1.36,0,0,1-.328-1.569A1.425,1.425,0,0,1,88.256,2.75Z" transform="translate(-71.371 -2.38)" fill="#f27121"/>
    <path id="Path_2419" data-name="Path 2419" d="M381.42,9.144a4.852,4.852,0,0,1,.58-.961q2.4-2.448,4.846-4.846a1.384,1.384,0,0,1,2.019-.1A1.408,1.408,0,0,1,388.78,5.3c-1.592,1.615-3.2,3.2-4.8,4.8a1.409,1.409,0,0,1-1.684.37A1.548,1.548,0,0,1,381.42,9.144Z" transform="translate(-326.422 -2.461)" fill="#f27121"/>
    <path id="Path_2420" data-name="Path 2420" d="M255.751,4.494c0,.981.012,1.963,0,2.944a1.358,1.358,0,0,1-1.373,1.469,1.372,1.372,0,0,1-1.373-1.481q-.02-2.977,0-5.958a1.375,1.375,0,1,1,2.743.012C255.763,2.485,255.751,3.489,255.751,4.494Z" transform="translate(-215.283)" fill="#f27121"/>
    <path id="Path_2421" data-name="Path 2421" d="M65.907,440.763a1.353,1.353,0,0,1-1.389-1.38,1.373,1.373,0,1,1,2.745.035,1.346,1.346,0,0,1-1.355,1.345Z" transform="translate(-52.176 -379.033)" fill="#f27121"/>
    <path id="Path_2422" data-name="Path 2422" d="M343.648,341.079a1.346,1.346,0,0,1-1.385-1.3,1.378,1.378,0,0,1,1.346-1.435,1.412,1.412,0,0,1,1.4,1.4A1.38,1.38,0,0,1,343.648,341.079Z" transform="translate(-292.534 -292.798)" fill="#f27121"/>
  </g>
</svg>
