<svg xmlns="http://www.w3.org/2000/svg" width="58.294" height="75" viewBox="0 0 58.294 75">
  <g id="design-01" transform="translate(-10.065 -10.52)">
    <path id="Path_2425" data-name="Path 2425" d="M41.555,10.52a2.817,2.817,0,0,1,1.374,1.615q2.276,5.5,4.618,10.982a6.826,6.826,0,0,1,.6,2.978c-.043,1.174-.01,2.34-.01,3.631H65.772c1.865,0,2.58.707,2.582,2.548,0,.806.012,1.615,0,2.416a1.1,1.1,0,0,1-1.076,1.223c-.674.012-1.1-.459-1.114-1.253-.012-.881,0-1.752,0-2.682H62.348c-.016.251-.044.508-.044.765q0,2.563-.007,5.125a2.5,2.5,0,0,1-.132.932.988.988,0,0,1-1.212.58,1.031,1.031,0,0,1-.841-1.124c-.007-1.83,0-3.662-.007-5.492,0-.261-.022-.523-.035-.807H58.1V34.6c0,1.2.01,2.392,0,3.587a1.091,1.091,0,0,1-1.069,1.224c-.678.013-1.115-.452-1.12-1.246-.01-1.782,0-3.564,0-5.346v-.844h-2v1.615c0,1.538.012,3.082-.007,4.613-.01.779-.415,1.2-1.079,1.205a1.062,1.062,0,0,1-1.1-1.193c-.025-1.782-.01-3.564-.012-5.346v-.9H48.18V42.916H66.157V40.353c0-.983.385-1.487,1.113-1.468s1.083.514,1.083,1.51c0,2.684.015,5.37,0,8.055a6.484,6.484,0,0,1-6.044,6.6c-.092.009-.185.038-.358.075V56c0,4.124.021,8.25-.009,12.375a4.934,4.934,0,1,1-9.868-.01c-.031-4.124-.009-8.25-.01-12.375v-.671l-3.928-1.369V56.27c0,.969-.4,1.482-1.132,1.468s-1.064-.493-1.064-1.446V26.4H42.2V65.218H45.94V62.051c0-.872.395-1.349,1.088-1.349s1.1.49,1.105,1.346c0,5.467.029,10.935-.01,16.4a7.05,7.05,0,0,1-13.938,1.518A11.714,11.714,0,0,1,34,77.86c-.031-1.042-.009-2.084-.009-3.208H31.514a2.614,2.614,0,0,1-2.834-2.822c0-1.343-.016-2.686.007-4.027,0-.44-.129-.693-.553-.806a1.961,1.961,0,0,1-.611-.238c-1.014-.712-1.735-.341-2.456.518-.671.8-1.468,1.506-2.213,2.237a2.553,2.553,0,0,1-3.831,0q-1.93-1.908-3.831-3.832a2.543,2.543,0,0,1,.019-3.828q1.435-1.468,2.9-2.9a.7.7,0,0,0,.186-.964,4.9,4.9,0,0,1-.274-.6c-.577-1.35-.577-1.35-2.075-1.35-1.049,0-2.1.013-3.148,0a2.593,2.593,0,0,1-2.73-2.777q-.013-2.673,0-5.346a2.549,2.549,0,0,1,2.714-2.7c1.342-.012,2.684-.019,4.026,0a.833.833,0,0,0,.926-.611c.753-1.937.771-1.932-.7-3.4-.638-.64-1.29-1.265-1.908-1.92a2.513,2.513,0,0,1,0-3.669q1.964-2.023,3.988-3.985a2.513,2.513,0,0,1,3.669.026q1.5,1.453,2.949,2.955c.316.324.611.456,1.019.2a1.162,1.162,0,0,1,.4-.182c1.34-.241,1.708-1.052,1.551-2.341a22.868,22.868,0,0,1-.022-2.925,2.562,2.562,0,0,1,2.731-2.758c.825-.009,1.65,0,2.431,0,.068-.113.116-.156.113-.194a9.384,9.384,0,0,1,1.127-4.482q2.074-4.844,4.073-9.706a3.112,3.112,0,0,1,1.375-1.7ZM33.943,28.8c-.816,0-1.592.023-2.365-.009-.558-.022-.719.217-.712.734q.031,2.122,0,4.246a2.468,2.468,0,0,1-1.57,2.348c-.6.273-1.22.493-1.82.76a2.6,2.6,0,0,1-3.145-.587c-.914-.913-1.882-1.846-2.789-2.8-.426-.451-.725-.517-1.184-.032-1.11,1.174-2.254,2.3-3.415,3.417-.433.415-.461.7-.013,1.129.991.939,1.948,1.918,2.9,2.893a2.586,2.586,0,0,1,.556,3.031c-.225.54-.454,1.077-.671,1.615A2.639,2.639,0,0,1,17.032,47.4c-1.349.009-2.684.023-4.026,0-.587-.013-.763.208-.753.773.026,1.615.032,3.222,0,4.832-.015.64.205.866.844.851,1.39-.032,2.789-.021,4.173,0a2.432,2.432,0,0,1,2.338,1.575c.255.58.481,1.174.734,1.754a2.621,2.621,0,0,1-.618,3.263c-.944.955-1.889,1.908-2.852,2.843-.355.343-.387.606-.016.969q1.81,1.761,3.571,3.572c.383.393.656.376,1.027-.007.966-1,1.955-1.979,2.947-2.955a2.577,2.577,0,0,1,3.029-.543c.54.226,1.076.456,1.615.675a2.579,2.579,0,0,1,1.827,2.692v4.027c0,.363.015.721.5.734.845.013,1.694,0,2.557,0V62.218A11.768,11.768,0,0,1,26.2,59.06,10.815,10.815,0,0,1,22.8,52.973a1.407,1.407,0,0,1,.481-1.155,1.341,1.341,0,0,1,1.184.063,1.687,1.687,0,0,1,.518.991A9.311,9.311,0,0,0,29.4,58.725a8.971,8.971,0,0,0,4.575,1.256v-2.61c0-.213-.028-.426-.041-.627-3.559-.668-5.648-2.642-5.871-5.492a6.047,6.047,0,0,1,.967-3.972,6.194,6.194,0,0,1,4.88-2.759V41.279c-.294,0-.506-.007-.725,0a3.95,3.95,0,0,0-.506.066,9.394,9.394,0,0,0-7.5,6.322c-.308.829-.809,1.145-1.468.931-.636-.205-.881-.832-.6-1.628a11.375,11.375,0,0,1,7.679-7.433,28.573,28.573,0,0,1,3.153-.612ZM39.89,65.226V26.391H36.24V65.226Zm26.252-20h-18c0,1.615,0,3.166.007,4.722a1.248,1.248,0,0,0,.169.55,4.042,4.042,0,0,0,3.615,2.348q5.046.075,10.1,0a4.2,4.2,0,0,0,4.11-3.91C66.208,47.724,66.142,46.509,66.142,45.229ZM36.24,74.107c0,1.659-.1,3.291.025,4.905A4.762,4.762,0,0,0,40.642,83.3a4.579,4.579,0,0,0,4.99-3.407,40.424,40.424,0,0,0,.405-5.783Zm18.043-19c0,4.6-.028,9.135.021,13.669a2.421,2.421,0,0,0,1.686,2.2,2.69,2.69,0,0,0,3.734-2.382c.053-4.39.021-8.78.021-13.17a1.782,1.782,0,0,0-.059-.314ZM36.23,67.493v4.334h9.655V67.493Zm9.345-43.376C45,22.742,44.47,21.463,43.909,20.2a.65.65,0,0,0-.489-.294q-2.34-.032-4.682,0a.663.663,0,0,0-.509.272c-.568,1.286-1.1,2.588-1.666,3.944ZM33.95,46.8a3.8,3.8,0,0,0-3.678,4.346c.2,1.849,2.067,3.49,3.678,3.219Zm8.9-29.135c-.6-1.424-1.174-2.789-1.8-4.284-.63,1.521-1.193,2.875-1.777,4.284Z" transform="translate(0 0)" fill="#fff"/>
    <path id="Path_2426" data-name="Path 2426" d="M36.551,30.747v-3.22a2.024,2.024,0,0,1,1.113-1.908c1.845-1.036,3.677-2.1,5.5-3.176a2.074,2.074,0,0,1,2.276,0q2.745,1.606,5.51,3.181a2.034,2.034,0,0,1,1.115,1.908v6.44a2.045,2.045,0,0,1-1.115,1.908q-2.762,1.573-5.508,3.179a2.064,2.064,0,0,1-2.272,0q-2.742-1.612-5.508-3.175a2.025,2.025,0,0,1-1.115-1.908C36.558,32.9,36.551,31.826,36.551,30.747Zm13.323.023c0-.9.035-1.807-.022-2.705a1.13,1.13,0,0,0-.454-.785c-1.538-.936-3.1-1.827-4.676-2.7a.939.939,0,0,0-.768-.028q-2.432,1.349-4.813,2.773a.947.947,0,0,0-.377.687q-.046,2.74,0,5.483a.947.947,0,0,0,.389.677Q41.5,35.591,43.9,36.912a1.019,1.019,0,0,0,.841,0q2.367-1.3,4.679-2.7a1.137,1.137,0,0,0,.44-.8c.051-.876.016-1.757.016-2.633Z" transform="translate(-22.597 -9.882)" fill="#fff"/>
    <path id="Path_2427" data-name="Path 2427" d="M277.717,22.39a1.413,1.413,0,0,1,1.381,1.016,4.427,4.427,0,0,0,3.164,3.15,1.385,1.385,0,0,1,1,1.393,1.415,1.415,0,0,1-1.027,1.447,4.368,4.368,0,0,0-3.116,3.1,1.5,1.5,0,0,1-2.862.006,4.379,4.379,0,0,0-3.12-3.1,1.509,1.509,0,0,1,.026-2.869,4.316,4.316,0,0,0,3.07-3.053A1.462,1.462,0,0,1,277.717,22.39Zm1.544,5.6-1.572-1.615-1.622,1.55,1.638,1.625Z" transform="translate(-223.584 -10.128)" fill="#fff"/>
    <path id="Path_2428" data-name="Path 2428" d="M357.2,80.214c-.147,2.025-.368,2.535-1.142,2.438-1.537-.194-.947-1.485-1.155-2.467-.411,0-.842.016-1.271,0A1.094,1.094,0,1,1,353.616,78c.411-.022.823,0,1.343,0,0-.44-.012-.845,0-1.249a1.137,1.137,0,0,1,1.082-1.231c.652-.013,1.092.484,1.11,1.265.009.365,0,.734,0,1.214.455,0,.881-.015,1.309,0a1.1,1.1,0,1,1,.009,2.19c-.219.01-.44,0-.659,0C357.618,80.19,357.429,80.2,357.2,80.214Z" transform="translate(-292.157 -55.458)" fill="#fff"/>
    <path id="Path_2429" data-name="Path 2429" d="M324.552,381.192c0,.414.025.828,0,1.239a1.093,1.093,0,0,1-1.082,1.064,1.074,1.074,0,0,1-1.09-1.051c-.035-.848-.034-1.7,0-2.549a1.08,1.08,0,0,1,1.079-1.064,1.093,1.093,0,0,1,1.093,1.051C324.577,380.323,324.552,380.763,324.552,381.192Z" transform="translate(-266.453 -314.252)" fill="#fff"/>
    <path id="Path_2430" data-name="Path 2430" d="M65.7,53.259a4.045,4.045,0,1,1-2.9,1.194A4.047,4.047,0,0,1,65.7,53.259Zm1.882,4.072A1.876,1.876,0,1,0,66.663,59,1.876,1.876,0,0,0,67.585,57.331Z" transform="translate(-43.999 -36.466)" fill="#fff"/>
  </g>
</svg>
