<svg xmlns="http://www.w3.org/2000/svg" width="60" height="58.114" viewBox="0 0 60 58.114">
  <g id="experience-01" transform="translate(-6.95 -7.908)">
    <path id="Path_2423" data-name="Path 2423" d="M6.956,58.16a1.36,1.36,0,0,1,1.358-.59c.445.038.9.008,1.409.008-.088-.177-.147-.311-.222-.438a4.709,4.709,0,0,1-.67-2.452c0-3.124-.017-6.253.006-9.374A10.308,10.308,0,0,1,19.062,35.082c1.108-.011,2.217,0,3.3,0a.877.877,0,0,0-.354-1.052,8.626,8.626,0,0,1-3.131-5.073c-.028-.133-.072-.262-.118-.415a3.61,3.61,0,0,1-3-1.445,3.778,3.778,0,0,1-.79-1.9,43.158,43.158,0,0,1,.205-6.948A12.432,12.432,0,0,1,26.059,7.99a12.573,12.573,0,0,1,13.859,9.85,18.775,18.775,0,0,1,.3,3.254c.048,1.089.011,2.186.011,3.28a3.813,3.813,0,0,1-3.847,4.168c-.059.236-.118.5-.188.755a8.673,8.673,0,0,1-3.059,4.731.856.856,0,0,0-.347,1.048c.914,0,1.849-.028,2.78.008.8.031,1.59.136,2.386.206a2.784,2.784,0,0,0,.464.025c1.006-.076,2.012-.225,3.017-.229,6.464-.021,12.928.044,19.39-.039a4.039,4.039,0,0,1,4.276,4.3c-.094,5.191-.015,10.382-.041,15.583a24.736,24.736,0,0,1-.28,2.642c.275,0,.693-.008,1.109,0a.943.943,0,0,1,1.054,1.05q.015,3.163,0,6.326a.952.952,0,0,1-1.048,1.062H65.6q-28.646,0-57.293.009a1.472,1.472,0,0,1-1.358-.6Zm30.936-.59h23.1c1.508,0,2.209-.708,2.209-2.231V39.184c0-1.522-.7-2.229-2.21-2.229H40.141c-1.562,0-2.253.688-2.253,2.242V56.941ZM24.733,52.887H16.512c-.685,0-1.109-.37-1.108-.937s.421-.933,1.11-.934c3.1,0,6.209-.017,9.313.007a7.35,7.35,0,0,1,4.5,1.586,1.416,1.416,0,0,0,.788.268c1.464.026,2.928.014,4.392.011.166,0,.333-.021.516-.034,0-3.9-.017-7.749.009-11.6.009-1.428-.247-2.888.462-4.273H32.753c-.88,3.1-2.56,4.624-5.1,4.653-2.607.031-4.26-1.428-5.271-4.685H19.3a8.431,8.431,0,0,0-8.6,8.6q-.011,4.453,0,8.9a2.84,2.84,0,0,0,3.125,3.121H24.735ZM8.873,59.46V64.1H65.025V59.46Zm29.5-38.108c.11-4.4-1.572-7.961-5.512-10.172a10.29,10.29,0,0,0-11.631.676,10.479,10.479,0,0,0-4.359,9.578,10.281,10.281,0,0,1,1.278-.367,9.566,9.566,0,0,1,1.343-.052h1.405A13.7,13.7,0,0,0,31.038,16.82c.708-.708,1.2-.67,1.824.137.944,1.219,1.881,2.443,2.832,3.657a.993.993,0,0,0,.472.383c.72.146,1.444.241,2.2.36ZM20.659,22.886a49.764,49.764,0,0,0,.034,5.4,6.978,6.978,0,0,0,13.776-.032c.212-1.909.1-3.854.133-5.781a.655.655,0,0,0-.126-.372c-.862-1.13-1.736-2.253-2.633-3.416A15.835,15.835,0,0,1,20.656,22.9Zm3.673,12.506c-.172,1.673.134,3.085,1.652,3.937a3.082,3.082,0,0,0,3.518-.215A3.624,3.624,0,0,0,30.809,35.4a8.916,8.916,0,0,1-6.481,0Zm2.327,22.125h4.548c-.366-2.305-2.52-4.409-4.548-4.473ZM35.979,54.8H32.311c.307.92.6,1.816.916,2.75h2.753ZM36.5,22.924V26.6a1.836,1.836,0,1,0,0-3.672Zm-17.866,0a1.851,1.851,0,0,0-1.846,1.888,1.816,1.816,0,0,0,1.846,1.774Z" transform="translate(0 0)" fill="#f27121"/>
    <path id="Path_2424" data-name="Path 2424" d="M341.41,301.75a4.686,4.686,0,1,1-4.692,4.631A4.686,4.686,0,0,1,341.41,301.75Zm2.8,4.694a2.809,2.809,0,1,0-2.787,2.8A2.809,2.809,0,0,0,344.211,306.444Z" transform="translate(-290.861 -259.174)" fill="#f27121"/>
  </g>
</svg>
