<svg xmlns="http://www.w3.org/2000/svg" width="159.966" height="70" viewBox="0 0 159.966 70">
  <g id="Group_286" data-name="Group 286" transform="translate(-358.38 -12.188)">
    <path id="Path_2338" data-name="Path 2338" d="M131.393,53.35h-6.858a1.273,1.273,0,0,1-1.3-1.227,4.854,4.854,0,0,1,0-.5V31.8c0-1.266.424-1.694,1.687-1.694h6.557a15.384,15.384,0,0,1,3.611.677,5.114,5.114,0,0,1,3.559,4.909A4.908,4.908,0,0,1,135.5,40.8c.3.088.54.154.778.228a5.476,5.476,0,0,1,3.762,6.017c-.351,3.482-2.707,5.186-5.491,5.845A28.8,28.8,0,0,1,131.393,53.35Zm0-19.611-3.506-.133v6.1h2.163c.445,0,.887-.053,1.332-.081a2.613,2.613,0,0,0,.351-.028,2.847,2.847,0,0,0,2.223-3.233A2.562,2.562,0,0,0,131.393,33.739Zm0,9.467h-3.506v6.5h3.506a8.055,8.055,0,0,0,1.126-.074,3.184,3.184,0,0,0,.708-6.08,11.7,11.7,0,0,0-1.834-.361Z" transform="translate(276.228 -8.85)" fill="#0a8bc4"/>
    <path id="Path_2339" data-name="Path 2339" d="M312.935,47.988h-8.454c-.263,0-.326.123-.393.33-.452,1.4-.929,2.805-1.367,4.208a.94.94,0,0,1-.9.75c-1.017.035-2.041.035-3.061,0-.473,0-.677-.284-.614-.761a5.907,5.907,0,0,1,.295-1.171c2.339-6.732,4.695-13.454,7.013-20.189A1.386,1.386,0,0,1,306.9,30.04c1.329.018,2.658,0,3.99.028a1.14,1.14,0,0,1,1.115.849q3.6,10.351,7.216,20.687a4.517,4.517,0,0,1,.221.933c.053.473-.119.719-.593.729-1.189.032-2.377.025-3.566,0a.863.863,0,0,1-.82-.7c-.459-1.4-.943-2.833-1.4-4.25Zm-1.087-3.632c-1.1-3.292-2.181-6.553-3.264-9.818h-.091q-1.62,4.909-3.25,9.818Z" transform="translate(162.648 -8.805)" fill="#0a8bc4"/>
    <path id="Path_2340" data-name="Path 2340" d="M416.76,40.377q2.1-3.036,4.208-6.076c.866-1.255,1.708-2.528,2.616-3.755a1.616,1.616,0,0,1,.95-.589,8.566,8.566,0,0,1,3.3.035c.75.165.964.554.557,1.217-.568.926-1.206,1.816-1.862,2.686-1.609,2.135-3.243,4.257-4.881,6.371a.459.459,0,0,0,0,.649q3.3,4.947,6.571,9.923a6.572,6.572,0,0,1,.614,1.189c.217.536.035.894-.519,1.006a10.112,10.112,0,0,1-3.675.039,1.343,1.343,0,0,1-.95-.7q-3.345-5.259-6.7-10.519c-.074-.116-.158-.228-.316-.456V52.021c0,.792-.084.933-.859,1.052a7.956,7.956,0,0,1-3.047-.028c-.7-.151-.806-.291-.806-.992V31.015c0-.827.1-.985.915-1.111a8.415,8.415,0,0,1,3.135.053c.557.123.663.266.663.834v9.555Z" transform="translate(88.736 -8.637)" fill="#0a8bc4"/>
    <path id="Path_2341" data-name="Path 2341" d="M216.033,41.4l-3.6,5.673-1.581,2.5h9.467c.54,0,.7.109.827.628a5.961,5.961,0,0,1,0,2.584.7.7,0,0,1-.782.586H206.951c-1.287,0-1.522-.582-1.641-1.648a5.286,5.286,0,0,1,1.1-3.636,9.029,9.029,0,0,0,.5-.845c.249-.379.5-.75.743-1.133q2.437-3.822,4.853-7.644l2.914-4.513h-8.766c-.565.053-.8-.3-.933-.768.035-.842.032-1.69.119-2.525.042-.4.407-.512.8-.512h12.489c1.164,0,1.525.424,1.6,1.6a6.2,6.2,0,0,1-1.178,4.008c-1.2,1.788-2.3,3.64-3.447,5.463C216.089,41.275,216.054,41.342,216.033,41.4Z" transform="translate(222.946 -8.877)" fill="#0a8bc4"/>
    <path id="Path_2342" data-name="Path 2342" d="M42.915,77.77h3.538V92.2a4.826,4.826,0,0,0,.018.5v4.909H37.13V77.77Z" transform="translate(332.14 -39.799)" fill="#66d038"/>
    <path id="Path_2343" data-name="Path 2343" d="M37.37,147h9.193v19.5H37.37Z" transform="translate(331.984 -84.756)" fill="#66d038"/>
    <path id="Path_2344" data-name="Path 2344" d="M46.666,7.757v16H43.11l-5.168-.032H37.43V4.24h9.236Z" transform="translate(331.946 7.948)" fill="#66d038"/>
    <path id="Path_2345" data-name="Path 2345" d="M265.106,33.987V52.22c0,.831-.07.954-.87,1.087a8.254,8.254,0,0,1-3.131-.046c-.6-.13-.719-.284-.719-.884V33.987h-5.593c-.491,0-.747-.14-.782-.624a20.508,20.508,0,0,1,0-2.626c.032-.494.28-.617.827-.617h15.778c.635,0,.856.109.912.726a13.389,13.389,0,0,1-.021,2.454c-.06.586-.274.7-.852.7h-5.55Z" transform="translate(191.33 -8.857)" fill="#0a8bc4"/>
    <path id="Path_2346" data-name="Path 2346" d="M6.07,96.607V79.622l2.454-.508,3.938-.838,1.911-.326V98.181L6.105,97.27Z" transform="translate(352.31 -39.917)" fill="#66d038"/>
    <path id="Path_2347" data-name="Path 2347" d="M72.364,92.652c0-.151.039-.3.039-.456V77.82l8.191,1.532V97.308L72.35,98.1Z" transform="translate(309.269 -39.832)" fill="#66d038"/>
    <path id="Path_2348" data-name="Path 2348" d="M354.751,116.77c.579-.526,1.052-1.013,1.6-1.438a5.088,5.088,0,0,1,4.849-.978,4.109,4.109,0,0,1,2.553,2.1c.091.172.175.351.28.55.428-.41.827-.817,1.252-1.192a6.129,6.129,0,0,1,2.658-1.539,4.61,4.61,0,0,1,5.891,3.787,14.018,14.018,0,0,1,.224,2.419c.028,2.889,0,5.778,0,8.668,0,.649-.046.729-.7.8a5.508,5.508,0,0,1-1.294,0c-.684-.081-.7-.126-.7-.827,0-2.805.018-5.61,0-8.415a9.184,9.184,0,0,0-.249-2.076,2.622,2.622,0,0,0-4.239-1.63,18.1,18.1,0,0,0-2.258,2.177.806.806,0,0,0-.105.515v9.509c0,.61-.025.673-.645.733a10.255,10.255,0,0,1-1.5,0c-.351,0-.5-.207-.494-.579,0-2.889.028-5.778,0-8.668a7.814,7.814,0,0,0-.33-2.226,2.6,2.6,0,0,0-4.207-1.434,17.694,17.694,0,0,0-2.223,2.16.789.789,0,0,0-.109.508v9.551c0,.561-.042.652-.593.7a11.383,11.383,0,0,1-1.585,0c-.3,0-.459-.175-.459-.522V115c0-.351.126-.515.442-.536.459-.025.922-.042,1.382-.028.4,0,.589.228.564.659C354.727,115.613,354.751,116.157,354.751,116.77Z" transform="translate(127.438 -63.4)" fill="#66d038"/>
    <path id="Path_2349" data-name="Path 2349" d="M6.178,140.41l2.475.863c1.834.642,3.668,1.29,5.5,1.921a.389.389,0,0,1,.323.442v19.029c-.621-.4-1.217-.775-1.806-1.161-2.1-1.36-4.169-2.717-6.22-4.092a.652.652,0,0,1-.284-.442q-.021-8.2,0-16.406A1.228,1.228,0,0,1,6.178,140.41Z" transform="translate(352.251 -80.476)" fill="#66d038"/>
    <path id="Path_2350" data-name="Path 2350" d="M12.505,26.69,6.86,29.064l-.75.312V15.315c0-.771,0-1.539.025-2.311a.628.628,0,0,1,.165-.421q3.98-3.068,8.012-6.115a.645.645,0,0,1,.112-.049c0,.116.018.217.018.323V25.449a.5.5,0,0,1-.372.547C13.543,26.209,13.028,26.455,12.505,26.69Z" transform="translate(352.284 6.533)" fill="#66d038"/>
    <path id="Path_2351" data-name="Path 2351" d="M76.107,9.244c1.385,1.094,2.763,2.2,4.155,3.278a.943.943,0,0,1,.41.827q-.021,7.861,0,15.729v.5a2.541,2.541,0,0,1-.312-.105c-2.507-1.178-5.014-2.363-7.528-3.531a.564.564,0,0,1-.372-.607V6.569l.119-.049Z" transform="translate(309.201 6.468)" fill="#66d038"/>
    <path id="Path_2352" data-name="Path 2352" d="M80.646,140.43V156.8a.7.7,0,0,1-.351.673q-3.731,2.367-7.433,4.758c-.116.074-.235.14-.428.252V143.845a.582.582,0,0,1,.445-.666c2.454-.859,4.909-1.753,7.363-2.619A4,4,0,0,1,80.646,140.43Z" transform="translate(309.22 -80.489)" fill="#66d038"/>
    <path id="Path_2353" data-name="Path 2353" d="M372.279,49.29h6.627c1.2,0,1.3.063,1.371,1.29a10.206,10.206,0,0,1-.1,1.96c-.07.5-.281.621-.782.621h-10.3a1.347,1.347,0,0,1-1.522-1.452V31.053c0-.806.091-.95.9-1.083a8.254,8.254,0,0,1,3.131.042c.586.13.7.266.7.852V49.29Z" transform="translate(117.562 -8.676)" fill="#0a8bc4"/>
    <path id="Path_2354" data-name="Path 2354" d="M297.72,122.722a23.823,23.823,0,0,0,.529,2.738,3.98,3.98,0,0,0,3.857,2.651,10.719,10.719,0,0,0,4.691-.9c.831-.351,1.034-.242,1.052.656.025,1.164-.084,1.262-.985,1.588a11.739,11.739,0,0,1-7.041.515,5.68,5.68,0,0,1-4.239-3.955,11.3,11.3,0,0,1,.088-7.528,6.222,6.222,0,0,1,5.5-4.274,7.237,7.237,0,0,1,3.7.463,5.626,5.626,0,0,1,3.419,4.6,16.7,16.7,0,0,1,.172,2.3,1.031,1.031,0,0,1-1.171,1.161H297.72Zm8.064-1.957c0-1.669-.288-3.208-1.844-4.053a3.892,3.892,0,0,0-4.186.151,4.589,4.589,0,0,0-1.914,3.9Z" transform="translate(164.698 -63.423)" fill="#66d038"/>
    <path id="Path_2355" data-name="Path 2355" d="M170.793,122.466q1.185-3.45,2.374-6.907c.214-.631.333-.729.985-.75a7.287,7.287,0,0,1,1.175,0c.659.088.775.295.55.943-.4,1.164-.813,2.321-1.22,3.478l-1.157,3.285-2.356,6.441c-.792,2.184-1.592,4.365-2.374,6.553a.873.873,0,0,1-.785.652,11.619,11.619,0,0,1-1.711,0c-.529-.046-.631-.27-.431-.782.372-.95.754-1.893,1.126-2.844.249-.624.484-1.252.736-1.872a.351.351,0,0,0-.084-.473,1.809,1.809,0,0,1-.351-.614q-2.514-6.75-5.024-13.5c-.4-1.073-.263-1.269.9-1.294,1.536-.035,1.543-.035,2.058,1.4q1.883,5.259,3.755,10.519c.049.144.112.281.2.508C169.741,125.579,170.256,124.023,170.793,122.466Z" transform="translate(251.026 -63.829)" fill="#66d038"/>
    <path id="Path_2356" data-name="Path 2356" d="M215.461,121.909a4.087,4.087,0,0,1-1.634-2.219,4.222,4.222,0,0,1,1.115-4.278,4.688,4.688,0,0,1,2.619-1.2,7.633,7.633,0,0,1,4.162.4,1.623,1.623,0,0,1,1.175,2.163c-.105.533-.312.631-.789.351a6.017,6.017,0,0,0-3.348-.926,4.639,4.639,0,0,0-1.073.179,1.848,1.848,0,0,0-1.4,1.431,1.8,1.8,0,0,0,.7,1.985,11.507,11.507,0,0,0,1.676.936c1.073.508,2.163.982,3.247,1.469a3.953,3.953,0,0,1,1.683,4.3,4.186,4.186,0,0,1-3,3.317,8.089,8.089,0,0,1-6.311-.424,1.953,1.953,0,0,1-.841-2.517c.144-.309.375-.3.628-.168.372.2.726.424,1.1.617a5.61,5.61,0,0,0,4.148.554,2.085,2.085,0,0,0,1.711-2.265,1.785,1.785,0,0,0-.9-1.487,14.14,14.14,0,0,0-1.634-.849C217.474,122.821,216.468,122.368,215.461,121.909Z" transform="translate(217.763 -63.382)" fill="#66d038"/>
    <path id="Path_2357" data-name="Path 2357" d="M122.443,116.577c1.332-2.128,3.387-2.588,5.68-2.381a14.586,14.586,0,0,1,2.146.519,1.656,1.656,0,0,1,.94,2.146c-.1.494-.281.582-.733.33a6.1,6.1,0,0,0-3.306-.936,5.259,5.259,0,0,0-.992.144,1.886,1.886,0,0,0-1.532,1.494,1.841,1.841,0,0,0,.841,2.079,16.8,16.8,0,0,0,1.942.982c.81.375,1.655.7,2.454,1.1a3.661,3.661,0,0,1,1.992,2.423,4.366,4.366,0,0,1-2.661,5.3,8.064,8.064,0,0,1-6.6-.326,1.953,1.953,0,0,1-.838-2.518c.144-.312.379-.3.628-.165.372.2.729.421,1.1.614a5.585,5.585,0,0,0,4.144.554,2.083,2.083,0,0,0,1.711-2.265,1.753,1.753,0,0,0-.957-1.5c-.722-.417-1.5-.74-2.258-1.094-.659-.309-1.346-.561-1.978-.919a4.065,4.065,0,0,1-1.83-5.337A1.727,1.727,0,0,1,122.443,116.577Z" transform="translate(277.286 -63.425)" fill="#66d038"/>
    <path id="Path_2358" data-name="Path 2358" d="M436.75,130.272a8.533,8.533,0,0,1-3.973-.95,2.024,2.024,0,0,1-.677-2.475.351.351,0,0,1,.536-.133c.351.2.729.414,1.1.61a5.61,5.61,0,0,0,4.257.568,2.1,2.1,0,0,0,1.655-2.454,1.5,1.5,0,0,0-.722-1.175c-.8-.459-1.637-.834-2.454-1.248a17.678,17.678,0,0,1-2.556-1.325,4.057,4.057,0,0,1,.175-6.6,6.206,6.206,0,0,1,4.127-.954,6.4,6.4,0,0,1,2.682.75,1.821,1.821,0,0,1,.522,2.226c-.193.291-.4.14-.617.046a19.024,19.024,0,0,0-1.967-.81,4.208,4.208,0,0,0-2.482.025,1.918,1.918,0,0,0-1.427,1.494,1.753,1.753,0,0,0,.747,1.985c.775.487,1.637.827,2.454,1.241a22.823,22.823,0,0,1,2.77,1.452,3.545,3.545,0,0,1,1.4,3.366,4.486,4.486,0,0,1-4.022,4.172C437.71,130.187,437.135,130.226,436.75,130.272Z" transform="translate(75.777 -63.385)" fill="#66d038"/>
    <path id="Path_2359" data-name="Path 2359" d="M256.894,115.142v-5.3H255.05a.582.582,0,0,1-.673-.579,3.311,3.311,0,0,1-.056-.417c-.063-1.052.137-1.283,1.189-1.283h1.4v-3.324a2.01,2.01,0,0,1,.165-.543,4,4,0,0,1,2.072-.077.533.533,0,0,1,.445.61v3.317h3.492c.54,0,.645.088.757.624a1.755,1.755,0,0,1,.042.33c.035,1.147-.126,1.315-1.252,1.315h-3.015c0,.14-.025.263-.025.382v8.064a6.037,6.037,0,0,0,.154,1.2c.284,1.364,1.182,1.683,2.454,1.487a6.228,6.228,0,0,0,1.034-.351c.3-.1.551-.077.561.309a6.749,6.749,0,0,1-.035,1.4.887.887,0,0,1-.515.54,5.519,5.519,0,0,1-4.4-.1,3.474,3.474,0,0,1-1.858-3.131c-.105-1.322-.067-2.605-.095-3.909C256.9,115.559,256.9,115.352,256.894,115.142Z" transform="translate(191.11 -56.516)" fill="#66d038"/>
    <path id="Path_2360" data-name="Path 2360" d="M182,41.827V30.856c0-.533.116-.7.638-.817a8.208,8.208,0,0,1,3.457,0c.529.116.638.277.642.817v3.527c0,.151.021.305.032.456a2.7,2.7,0,0,1-.028.333V46.547c0,.109.021.221.032.33,0,.351-.032.67-.032,1.006v4.453a.649.649,0,0,1-.526.743,7.566,7.566,0,0,1-3.864-.1c-.133-.042-.242-.231-.305-.375a1.1,1.1,0,0,1-.018-.417Q182,47,182,41.827Z" transform="translate(238.066 -8.685)" fill="#0a8bc4"/>
    <g id="Group_283" data-name="Group 283" transform="translate(399.46 72.894)">
      <path id="Path_2366" data-name="Path 2366" d="M1.814-2.043l.1.7.023,0,.15-.7L3.115-5.695h.667L4.814-2.043l.153.717h.023L5.1-2.043l.832-3.652H6.69L5.344-.109H4.669l-1.1-3.875-.1-.5H3.445l-.1.5L2.229-.109H1.554L.211-5.695H.963ZM9.1-.029A1.751,1.751,0,0,1,7.716-.606,2.173,2.173,0,0,1,7.2-2.1v-.169a2.128,2.128,0,0,1,.527-1.475A1.625,1.625,0,0,1,8.98-4.337a1.572,1.572,0,0,1,1.27.506,2.017,2.017,0,0,1,.43,1.35v.472H7.987l-.012.019a1.641,1.641,0,0,0,.3.984A.965.965,0,0,0,9.1-.62a1.9,1.9,0,0,0,.673-.109,1.548,1.548,0,0,0,.5-.3l.3.491a1.756,1.756,0,0,1-.587.364A2.378,2.378,0,0,1,9.1-.029ZM8.98-3.742a.819.819,0,0,0-.648.32,1.518,1.518,0,0,0-.33.8L8.01-2.6H9.924v-.1a1.158,1.158,0,0,0-.238-.744A.847.847,0,0,0,8.98-3.742Zm6.092,1.715a2.281,2.281,0,0,1-.432,1.448,1.426,1.426,0,0,1-1.187.55,1.514,1.514,0,0,1-.714-.159,1.327,1.327,0,0,1-.5-.47l-.092.549h-.618V-6.094h.756v2.325a1.311,1.311,0,0,1,.485-.422,1.488,1.488,0,0,1,.677-.146,1.379,1.379,0,0,1,1.2.614,2.761,2.761,0,0,1,.43,1.615Zm-.756-.081a2.291,2.291,0,0,0-.263-1.164.865.865,0,0,0-.8-.451.989.989,0,0,0-.589.171,1.2,1.2,0,0,0-.382.458v1.8a1.236,1.236,0,0,0,.382.48.984.984,0,0,0,.6.173.9.9,0,0,0,.794-.38,1.744,1.744,0,0,0,.261-1.005Z" transform="translate(4.906 6.094)" fill="#f27121"/>
      <path id="Path_2367" data-name="Path 2367" d="M4.746-.85a1.787,1.787,0,0,1-.692.564,2.755,2.755,0,0,1-1.276.257A2.268,2.268,0,0,1,1.123-.669,2.218,2.218,0,0,1,.469-2.327V-3.478a2.3,2.3,0,0,1,.61-1.657,2.075,2.075,0,0,1,1.573-.641A2.237,2.237,0,0,1,4.159-5.3a1.565,1.565,0,0,1,.56,1.216l-.008.023H3.99a1.171,1.171,0,0,0-.37-.8,1.365,1.365,0,0,0-.969-.315A1.266,1.266,0,0,0,1.62-4.7a1.861,1.861,0,0,0-.391,1.216v1.159A1.753,1.753,0,0,0,1.666-1.1,1.437,1.437,0,0,0,2.778-.62a2.04,2.04,0,0,0,.779-.127,1.09,1.09,0,0,0,.433-.288V-2.3H2.767V-2.9H4.746Zm3.13-2.743-.387-.023a.865.865,0,0,0-.5.142.911.911,0,0,0-.316.4V-.109H5.912V-4.26h.675l.073.606a1.441,1.441,0,0,1,.435-.5,1.018,1.018,0,0,1,.6-.18.934.934,0,0,1,.161.013,1.068,1.068,0,0,1,.127.029Zm3.28,3.483Q11.118-.3,11.1-.441a2.436,2.436,0,0,1-.025-.29,1.762,1.762,0,0,1-.55.5,1.408,1.408,0,0,1-.731.2A1.357,1.357,0,0,1,8.8-.361a1.22,1.22,0,0,1-.339-.915,1.072,1.072,0,0,1,.481-.93,2.248,2.248,0,0,1,1.306-.336h.821v-.41a.761.761,0,0,0-.222-.577.874.874,0,0,0-.629-.213.908.908,0,0,0-.593.186.56.56,0,0,0-.228.447H8.678L8.67-3.132A1,1,0,0,1,9.1-3.961a1.757,1.757,0,0,1,1.164-.376,1.714,1.714,0,0,1,1.135.359,1.271,1.271,0,0,1,.43,1.034v2a3.89,3.89,0,0,0,.023.43,2.209,2.209,0,0,0,.084.407ZM9.9-.662a1.345,1.345,0,0,0,.74-.211,1,1,0,0,0,.43-.483v-.675h-.848a1.1,1.1,0,0,0-.731.23.688.688,0,0,0-.274.541.569.569,0,0,0,.173.437A.723.723,0,0,0,9.9-.662Zm6.56-1.366a2.288,2.288,0,0,1-.43,1.448,1.42,1.42,0,0,1-1.185.55,1.647,1.647,0,0,1-.673-.129,1.287,1.287,0,0,1-.493-.386V1.486h-.756V-4.26H13.5l.119.537a1.371,1.371,0,0,1,.506-.457,1.512,1.512,0,0,1,.706-.157,1.379,1.379,0,0,1,1.2.612,2.768,2.768,0,0,1,.428,1.617Zm-.756-.081a2.193,2.193,0,0,0-.278-1.16.9.9,0,0,0-.819-.455,1.008,1.008,0,0,0-.556.148,1.1,1.1,0,0,0-.372.4v2.006a1.073,1.073,0,0,0,.372.4,1.044,1.044,0,0,0,.564.144.93.93,0,0,0,.813-.393,1.727,1.727,0,0,0,.276-1.015Zm2.44-1.6a1.531,1.531,0,0,1,.527-.466,1.447,1.447,0,0,1,.692-.167,1.341,1.341,0,0,1,1.034.4,1.755,1.755,0,0,1,.37,1.228v2.6h-.756V-2.718a1.111,1.111,0,0,0-.221-.76.839.839,0,0,0-.658-.246,1.116,1.116,0,0,0-.57.148,1.234,1.234,0,0,0-.42.4V-.109H17.39V-6.094h.756ZM22.672-.109h-.756V-4.26h.756Zm0-5.213h-.756v-.771h.756Zm2.85,4.7a1.019,1.019,0,0,0,.662-.232.708.708,0,0,0,.286-.57h.679l.008.023a1.164,1.164,0,0,1-.478.953,1.747,1.747,0,0,1-1.157.416A1.68,1.68,0,0,1,24.138-.62a2.279,2.279,0,0,1-.48-1.485v-.161a2.269,2.269,0,0,1,.481-1.479,1.679,1.679,0,0,1,1.383-.593,1.68,1.68,0,0,1,1.191.43,1.336,1.336,0,0,1,.447,1.055l-.008.023H26.47a.877.877,0,0,0-.269-.646.924.924,0,0,0-.679-.267.911.911,0,0,0-.85.428,2.015,2.015,0,0,0-.255,1.049V-2.1a2.039,2.039,0,0,0,.253,1.061A.912.912,0,0,0,25.523-.62Zm4.895-.591a.515.515,0,0,0-.19-.41,1.785,1.785,0,0,0-.719-.28,3.024,3.024,0,0,1-1.137-.447.905.905,0,0,1-.382-.769,1.086,1.086,0,0,1,.43-.863,1.7,1.7,0,0,1,1.12-.357,1.7,1.7,0,0,1,1.153.372,1.1,1.1,0,0,1,.409.905l-.008.023h-.721a.66.66,0,0,0-.228-.489.841.841,0,0,0-.6-.217.871.871,0,0,0-.6.176.553.553,0,0,0-.2.426.475.475,0,0,0,.173.387,1.79,1.79,0,0,0,.7.253,3.024,3.024,0,0,1,1.17.458.924.924,0,0,1,.384.777,1.072,1.072,0,0,1-.447.894,1.872,1.872,0,0,1-1.168.341,1.824,1.824,0,0,1-1.251-.4,1.149,1.149,0,0,1-.433-.94l.008-.023H28.6a.7.7,0,0,0,.3.589,1.158,1.158,0,0,0,.656.186,1.069,1.069,0,0,0,.631-.163A.5.5,0,0,0,30.418-1.21Z" transform="translate(26.507 6.094)" fill="#f27121"/>
      <path id="Path_2368" data-name="Path 2368" d="M4.927-.109H4.171L1.482-4.429l-.023.008V-.109H.7V-5.695h.756L4.148-1.383l.023-.008v-4.3h.756Zm2.962.081A1.751,1.751,0,0,1,6.509-.606,2.173,2.173,0,0,1,6-2.1v-.169a2.128,2.128,0,0,1,.527-1.475,1.625,1.625,0,0,1,1.249-.589,1.572,1.572,0,0,1,1.27.506,2.017,2.017,0,0,1,.43,1.35v.472H6.78l-.012.019a1.641,1.641,0,0,0,.3.984.965.965,0,0,0,.817.386,1.9,1.9,0,0,0,.673-.109,1.548,1.548,0,0,0,.5-.3l.3.491a1.756,1.756,0,0,1-.587.364A2.378,2.378,0,0,1,7.888-.029ZM7.773-3.742a.819.819,0,0,0-.648.32,1.518,1.518,0,0,0-.33.8L6.8-2.6H8.717v-.1a1.158,1.158,0,0,0-.238-.744A.847.847,0,0,0,7.773-3.742Zm3.545-1.519v1H12.1v.56h-.786v2.52a.564.564,0,0,0,.121.41.437.437,0,0,0,.32.119A.756.756,0,0,0,11.9-.666a.88.88,0,0,0,.14-.038l.1.518a.667.667,0,0,1-.247.113,1.251,1.251,0,0,1-.328.044.979.979,0,0,1-.733-.278,1.208,1.208,0,0,1-.272-.873V-3.7H9.9v-.56h.66v-1ZM14.1-1.621l.088.5h.023l.107-.5.829-2.639h.606l.832,2.639.119.56h.023l.111-.56L17.49-4.26h.752l-1.2,4.151h-.61l-.8-2.528-.173-.706-.023,0-.165.7-.79,2.528h-.61L12.66-4.26h.752Zm4.707-.6a2.285,2.285,0,0,1,.5-1.517,1.672,1.672,0,0,1,1.354-.6,1.689,1.689,0,0,1,1.364.595,2.278,2.278,0,0,1,.5,1.519v.084a2.274,2.274,0,0,1-.5,1.519,1.684,1.684,0,0,1-1.358.591,1.687,1.687,0,0,1-1.36-.593,2.27,2.27,0,0,1-.5-1.517Zm.756.084a1.969,1.969,0,0,0,.278,1.089.921.921,0,0,0,.827.43.918.918,0,0,0,.821-.43,1.958,1.958,0,0,0,.28-1.089v-.084a1.952,1.952,0,0,0-.282-1.086.924.924,0,0,0-.827-.433.911.911,0,0,0-.819.433,1.973,1.973,0,0,0-.278,1.086Zm5.85-1.454-.387-.023a.865.865,0,0,0-.5.142.911.911,0,0,0-.316.4V-.109h-.756V-4.26h.675l.073.606a1.441,1.441,0,0,1,.435-.5,1.018,1.018,0,0,1,.6-.18.934.934,0,0,1,.161.013,1.068,1.068,0,0,1,.127.029Zm1.979,1.569H26.9V-.109h-.756V-6.094H26.9v3.468h.483L28.519-4.26h.905L28-2.373,29.628-.109h-.89Z" transform="translate(63.821 6.094)" fill="#f27121"/>
      <path id="Path_2369" data-name="Path 2369" d="M3.719-1.541H1.379L.849-.1H.078l2.16-5.585h.648L5.011-.1H4.24ZM1.613-2.174h1.88L2.572-4.717H2.549Zm7.561.153a2.288,2.288,0,0,1-.43,1.448,1.42,1.42,0,0,1-1.185.55A1.647,1.647,0,0,1,6.885-.15a1.287,1.287,0,0,1-.493-.386V1.494H5.637V-4.253h.579l.119.537a1.371,1.371,0,0,1,.506-.457,1.512,1.512,0,0,1,.706-.157,1.379,1.379,0,0,1,1.2.612A2.768,2.768,0,0,1,9.174-2.1ZM8.418-2.1a2.193,2.193,0,0,0-.278-1.16.9.9,0,0,0-.819-.455,1.008,1.008,0,0,0-.556.148,1.1,1.1,0,0,0-.372.4v2.006a1.073,1.073,0,0,0,.372.4,1.044,1.044,0,0,0,.564.144.93.93,0,0,0,.813-.393A1.727,1.727,0,0,0,8.418-2.02Zm5.221.081a2.288,2.288,0,0,1-.43,1.448,1.42,1.42,0,0,1-1.185.55,1.647,1.647,0,0,1-.673-.129,1.287,1.287,0,0,1-.493-.386V1.494H10.1V-4.253h.579l.119.537a1.371,1.371,0,0,1,.506-.457,1.512,1.512,0,0,1,.706-.157,1.379,1.379,0,0,1,1.2.612A2.768,2.768,0,0,1,13.639-2.1ZM12.883-2.1a2.193,2.193,0,0,0-.278-1.16.9.9,0,0,0-.819-.455,1.008,1.008,0,0,0-.556.148,1.1,1.1,0,0,0-.372.4v2.006a1.073,1.073,0,0,0,.372.4,1.044,1.044,0,0,0,.564.144.93.93,0,0,0,.813-.393,1.727,1.727,0,0,0,.276-1.015Zm4.1.9a.515.515,0,0,0-.19-.41,1.785,1.785,0,0,0-.719-.28,3.024,3.024,0,0,1-1.137-.447.905.905,0,0,1-.382-.769,1.085,1.085,0,0,1,.43-.863A1.7,1.7,0,0,1,16.1-4.33a1.7,1.7,0,0,1,1.153.372,1.1,1.1,0,0,1,.409.905l-.008.023h-.721a.66.66,0,0,0-.228-.489.841.841,0,0,0-.6-.217.871.871,0,0,0-.6.176.553.553,0,0,0-.2.426.475.475,0,0,0,.173.387,1.79,1.79,0,0,0,.7.253,3.024,3.024,0,0,1,1.17.458.924.924,0,0,1,.384.777,1.072,1.072,0,0,1-.447.894,1.872,1.872,0,0,1-1.168.341,1.824,1.824,0,0,1-1.251-.4,1.149,1.149,0,0,1-.433-.94l.008-.023h.721a.7.7,0,0,0,.3.589,1.158,1.158,0,0,0,.656.186,1.069,1.069,0,0,0,.631-.163A.5.5,0,0,0,16.98-1.2Z" transform="translate(101.15 6.086)" fill="#f27121"/>
      <circle id="Ellipse_1" data-name="Ellipse 1" cx="1.473" cy="1.473" r="1.473" transform="translate(0 2.056)" fill="#ccc"/>
      <circle id="Ellipse_2" data-name="Ellipse 2" cx="1.473" cy="1.473" r="1.473" transform="translate(22.587 2.056)" fill="#ccc"/>
      <circle id="Ellipse_3" data-name="Ellipse 3" cx="1.473" cy="1.473" r="1.473" transform="translate(59.905 2.056)" fill="#ccc"/>
      <circle id="Ellipse_4" data-name="Ellipse 4" cx="1.473" cy="1.473" r="1.473" transform="translate(96.241 2.056)" fill="#ccc"/>
    </g>
  </g>
</svg>
