<svg xmlns="http://www.w3.org/2000/svg" width="75" height="75" viewBox="0 0 75 75">
  <g id="Group_321" data-name="Group 321" transform="translate(-780 -839)">
    <rect id="Rectangle_3648" data-name="Rectangle 3648" width="75" height="75" rx="5" transform="translate(780 839)" fill="#076a96"/>
    <g id="envelope-01" transform="translate(790.88 845.783)">
      <path id="Path_2535" data-name="Path 2535" d="M46.932,152.912H6.862a4.764,4.764,0,0,1-.543-.244,2.372,2.372,0,0,1-1.2-2.186q.016-9.392,0-18.787v-5.442a2.18,2.18,0,0,1,.684-1.721,2.61,2.61,0,0,0,.346.428q1.22,1,2.459,1.972c.5.394,1.028.758,1.544,1.142a2.8,2.8,0,0,0,.286.316q4.39,3.507,8.782,7.006c1.245,1,2.48,2,3.72,3a3.229,3.229,0,0,1-.35.387q-3.437,2.8-6.894,5.6-4.244,3.427-8.49,6.846c-.234.188-.446.4-.668.6l.077.089c.131-.083.267-.161.4-.248l17.279-11.517a5.146,5.146,0,0,0,.428-.36c.618.483,1.255.945,1.856,1.457.277.238.446.2.7-.013.593-.491,1.21-.955,1.816-1.428.127.1.25.2.383.286q2.645,1.768,5.292,3.53c1.107.738,2.209,1.484,3.316,2.222q3.157,2.111,6.318,4.214c1.045.694,2.1,1.374,3.154,2.059l.077.021-.077-.021a1.654,1.654,0,0,0-.234-.3q-1.714-1.4-3.427-2.795-2.9-2.342-5.795-4.68c-1.918-1.552-3.829-3.113-5.751-4.662-.52-.42-1.068-.805-1.6-1.207.1-.087.193-.179.3-.26q5.027-4,10.055-8.01c.857-.683,1.692-1.389,2.538-2.085a1.373,1.373,0,0,0,.226-.123c1.17-.931,2.342-1.856,3.5-2.8a7.057,7.057,0,0,0,.641-.68,2.4,2.4,0,0,1,.681,1.825v24.133a2.262,2.262,0,0,1-.7,1.816A7,7,0,0,1,46.932,152.912Zm-40.556-.875-.049-.041a.181.181,0,0,0-.02.029.324.324,0,0,0,.047.041Z" transform="translate(0 -99.695)" fill="#f5b763"/>
      <path id="Path_2536" data-name="Path 2536" d="M64.309,45.726h8.9c.585,0,.588,0,.588.571v7.149l.026.106v7.016c-.845.7-1.682,1.4-2.538,2.085q-5.024,4.01-10.055,8.01c-.1.081-.2.173-.3.26l-1.651,1.324c-.607.474-1.224.938-1.816,1.428-.251.208-.42.251-.7.013-.594-.511-1.231-.974-1.856-1.457q-.884-.7-1.771-1.4c-1.24-1-2.475-2.008-3.72-3q-4.387-3.507-8.782-7.006a2.8,2.8,0,0,1-.286-.316q.01-3.48.024-6.963l.019-.089V46.3c0-.571,0-.571.588-.571h8.915l.167-.017c2.181,0,4.361.011,6.542.01q3.8,0,7.6-.011Zm-7.2,3.868H44.76a1.227,1.227,0,0,0-.391.014.428.428,0,0,0-.254.23c-.169.714-.014.9.691.9h24.6a1.588,1.588,0,0,0,.437-.013.414.414,0,0,0,.253-.23c.169-.714.016-.9-.69-.9Zm.01,5.534H69.46a1.908,1.908,0,0,0,.394-.011.358.358,0,0,0,.23-.156c.248-.561-.029-.975-.644-.975H44.75a2.588,2.588,0,0,0-.394.01c-.077.013-.206.07-.21.116a2.823,2.823,0,0,0,0,.857c.021.089.344.143.528.143Q50.9,55.133,57.115,55.128Zm-.031,4.308H69.551c.558,0,.533-.009.571-.561.031-.484-.224-.5-.591-.5q-12.424.009-24.847,0a1.043,1.043,0,0,0-.348.016.391.391,0,0,0-.218.218c-.159.63,0,.824.633.824Zm-.023,4.391H58.6q3.318,0,6.635-.007c.154,0,.391-.053.447-.156.286-.53-.023-.98-.623-.98H49.152a2.592,2.592,0,0,0-.394.01c-.079.011-.211.063-.216.107a2.827,2.827,0,0,0,0,.857c.021.09.341.154.524.154C51.733,63.83,54.4,63.827,57.061,63.827Z" transform="translate(-30.208 -32.139)" fill="#edeeed"/>
      <path id="Path_2537" data-name="Path 2537" d="M31.491,221.66q.887.7,1.771,1.4c-.143.12-.286.256-.428.36q-8.637,5.762-17.279,11.517c-.13.087-.266.166-.4.248l-.077-.089c.223-.2.428-.416.668-.6q4.241-3.427,8.49-6.846,3.457-2.793,6.906-5.6A3.23,3.23,0,0,0,31.491,221.66Z" transform="translate(-8.538 -182.963)" fill="#e9a14e"/>
      <path id="Path_2538" data-name="Path 2538" d="M172.94,223.614l1.651-1.324c.534.4,1.082.787,1.6,1.207,1.922,1.549,3.833,3.11,5.751,4.662s3.864,3.119,5.795,4.68q1.714,1.389,3.427,2.795a1.654,1.654,0,0,1,.234.3h0c-1.052-.685-2.109-1.365-3.154-2.059q-3.159-2.1-6.315-4.214c-1.107-.738-2.209-1.484-3.316-2.222q-2.645-1.766-5.292-3.53C173.19,223.819,173.067,223.711,172.94,223.614Z" transform="translate(-143.855 -183.503)" fill="#e9a14e"/>
      <path id="Path_2539" data-name="Path 2539" d="M274.75,107.606V100.59l.151-.01,4.221,3.427a7.059,7.059,0,0,1-.641.68c-1.158.944-2.331,1.871-3.5,2.8A1.375,1.375,0,0,1,274.75,107.606Z" transform="translate(-231.127 -79.174)" fill="#e9a14e"/>
      <path id="Path_2540" data-name="Path 2540" d="M14.313,100.437q-.013,3.481-.024,6.963c-.516-.378-1.041-.743-1.544-1.142q-1.242-.968-2.459-1.972a2.61,2.61,0,0,1-.346-.428c.621-.517,1.24-1.038,1.865-1.551.761-.623,1.529-1.238,2.295-1.856a.366.366,0,0,1,.123-.04Z" transform="translate(-4.132 -79.028)" fill="#e9a14e"/>
      <path id="Path_2541" data-name="Path 2541" d="M13.479,316.961l-.021.029a.327.327,0,0,1-.047-.041.179.179,0,0,1,.02-.029Z" transform="translate(-7.106 -264.62)" fill="#e9a14e"/>
      <path id="Path_2542" data-name="Path 2542" d="M302.23,317.8l.077.021Z" transform="translate(-254.682 -265.375)" fill="#e9a14e"/>
      <path id="Path_2543" data-name="Path 2543" d="M122.516,13.564q-3.8,0-7.6.011-3.271,0-6.542-.01l-.009-.161c1.571-1.285,3.124-2.6,4.721-3.856a5.1,5.1,0,0,1,1.894-1.277,1.758,1.758,0,0,1,1.531.328c2.018,1.612,4.007,3.259,6.008,4.894A.372.372,0,0,0,122.516,13.564Z" transform="translate(-88.506)" fill="#e9a14e"/>
      <path id="Path_2544" data-name="Path 2544" d="M107.419,44.54l.009.161-.167.017Z" transform="translate(-87.554 -31.136)" fill="#eab16e"/>
      <path id="Path_2545" data-name="Path 2545" d="M274.707,100.006l-.151.01-.026-.106Z" transform="translate(-230.938 -78.599)" fill="#eab77a"/>
      <path id="Path_2546" data-name="Path 2546" d="M207.421,45.249a.375.375,0,0,1,0-.069c.029.03.057.06.084.091Z" transform="translate(-173.41 -31.685)" fill="#eab16e"/>
      <path id="Path_2547" data-name="Path 2547" d="M40.02,100.069l-.09-.017.109-.071C40.033,100.01,40.026,100.039,40.02,100.069Z" transform="translate(-29.839 -78.659)" fill="#f5b763"/>
      <path id="Path_2548" data-name="Path 2548" d="M79.273,72.845h12.3c.705,0,.857.188.69.9a.414.414,0,0,1-.253.23,1.588,1.588,0,0,1-.437.013h-24.6c-.705,0-.857-.188-.691-.9a.428.428,0,0,1,.254-.231,1.227,1.227,0,0,1,.391-.014Z" transform="translate(-52.376 -55.39)" fill="#dbd8dd"/>
      <path id="Path_2549" data-name="Path 2549" d="M79.686,104.885H67.252c-.184,0-.507-.059-.528-.143a2.823,2.823,0,0,1,0-.857c0-.046.133-.1.21-.116a2.587,2.587,0,0,1,.394-.01H92.011c.615,0,.893.414.644.975a.358.358,0,0,1-.23.156,1.908,1.908,0,0,1-.394.011Z" transform="translate(-52.779 -81.897)" fill="#dad7dc"/>
      <path id="Path_2550" data-name="Path 2550" d="M79.273,135.431H66.936c-.637,0-.791-.194-.633-.824a.391.391,0,0,1,.218-.218,1.042,1.042,0,0,1,.348-.016H91.718c.367,0,.623.017.591.5-.036.553-.01.561-.571.561Z" transform="translate(-52.397 -108.134)" fill="#dad7dc"/>
      <path id="Path_2551" data-name="Path 2551" d="M105.965,165.745q-4,0-8-.007c-.183,0-.5-.064-.524-.154a2.827,2.827,0,0,1,0-.857c0-.044.143-.1.216-.107a2.587,2.587,0,0,1,.394-.01h15.908a.63.63,0,0,1,.623.98c-.056.1-.286.156-.447.156-2.212.01-4.427.007-6.635.007Z" transform="translate(-79.112 -134.057)" fill="#dad7dc"/>
    </g>
  </g>
</svg>
