<svg xmlns="http://www.w3.org/2000/svg" width="75.064" height="75" viewBox="0 0 75.064 75">
  <g id="networks-01" transform="translate(-8.7 -6.725)">
    <path id="Path_2438" data-name="Path 2438" d="M83.758,59.9V81.724H64.424v-21.8h8.4v-9.64H67.976c-.171.589-.294,1.189-.516,1.743a8.487,8.487,0,0,1-8.264,5.513H44.554c-3.808,0-7.614.016-11.42,0a8.459,8.459,0,0,1-8.464-6.794c-.116-.538-.157-1.095-.232-1.64H22.121V59.941h.825c2,0,4-.01,6,0a3.675,3.675,0,0,1,3.993,4.02q.009,4.83,0,9.663V74.5h2.431c0,1.315.038,2.535-.012,3.752a3.458,3.458,0,0,1-1.638,2.87,10.778,10.778,0,0,1-1.226.606H11.687c-1.324-.468-2.5-1.2-2.737-2.657a42.427,42.427,0,0,1-.25-4.623h2.489V73.431c.013-3.393-.021-6.786.06-10.177A3.313,3.313,0,0,1,14.3,60.043c1.5-.129,3.021-.072,4.533-.1.256,0,.512-.024.831-.038V46.664h.859c1.27,0,2.538.01,3.808-.012a.794.794,0,0,0,.606-.241c.362-.68.656-1.395,1.011-2.176H17.234V38.2c-1.564,0-3.049.013-4.532,0a3.674,3.674,0,0,1-3.936-3.942q-.009-11.789,0-23.579a3.662,3.662,0,0,1,3.927-3.95q5.748-.013,11.5,0a3.638,3.638,0,0,1,3.917,3.939q.009,11.789,0,23.579a3.66,3.66,0,0,1-3.928,3.94c-1.27.015-2.538,0-3.808,0-.231,0-.462.031-.68.047v3.558h5.535c1.766,0,3.54.179,5.2-.744a2.223,2.223,0,0,0,1.109-1.015,9.6,9.6,0,0,1,11.9-4.9.846.846,0,0,0,1.19-.352,9.64,9.64,0,0,1,17.341,5.481,1.1,1.1,0,0,0,.322.775c.971.637,1.985,1.209,2.984,1.8.1.06.209.165.315.165,1.6.01,3.2,0,4.8,0V30.879H64.465V28.485h2.281v-2.41H63.54a3.636,3.636,0,0,1-3.961-3.959q-.012-5.712,0-11.423a3.65,3.65,0,0,1,3.972-3.961H79.808a5.3,5.3,0,0,1,1.161.116,3.858,3.858,0,0,1,2.8,2.807V23.131c-.724,2.245-2.313,3.116-4.6,2.95-.864-.062-1.735-.009-2.6-.009v2.469h2.322v2.382h-6v14.5H67.24c.256.842.5,1.618.755,2.467h7.293v11.99a3.531,3.531,0,0,0,.419.057ZM59.323,42.647a7.7,7.7,0,0,0-.45-5.1,7.236,7.236,0,0,0-3.825-3.656,6.906,6.906,0,0,0-4.589-.294,7.773,7.773,0,0,0-5.28,5.167l-.852-.515a7.241,7.241,0,0,0-11.1,4.095.915.915,0,0,1-.906.727A5.992,5.992,0,0,0,27.828,52.2a5.918,5.918,0,0,0,5.478,2.9q12.964-.016,25.926,0c.243,0,.487-.015.736-.029A5.991,5.991,0,0,0,65.4,50.6,5.813,5.813,0,0,0,63,44.182,23.868,23.868,0,0,0,59.323,42.647Zm-28.8,31.776c.013-.28.029-.471.029-.662V64.03c0-1.254-.412-1.649-1.68-1.649H15.259c-1.267,0-1.66.393-1.66,1.663v10.38Zm50.768-55.63c.016-.253.043-.466.043-.68V10.8c0-1.273-.378-1.639-1.674-1.639H63.631c-1.252,0-1.654.412-1.657,1.676q-.009,3.659,0,7.318c0,.209.034.416.053.641ZM11.234,26.025h14.43V14.053H11.234Zm-.012,2.539c0,2.067-.025,4.087.015,6.106.015.686.494,1.065,1.24,1.068q5.965.021,11.932,0A1.116,1.116,0,0,0,25.668,34.6c.049-1.994.016-3.989.016-6.032ZM66.86,69.549H81.279V62.413H66.86Zm0,2.542c-.016.246-.041.459-.041.672,0,1.926.024,3.853-.016,5.779-.012.621.19.775.786.771,4.318-.022,8.635-.01,12.947-.013.237,0,.474-.026.736-.041V72.091ZM11.245,76.918c-.234,1.954.218,2.407,2.032,2.4,5.9-.041,11.8-.016,17.7-.018a8.28,8.28,0,0,0,.883-.034,1.106,1.106,0,0,0,1.065-1.1c.038-.4,0-.812,0-1.245Zm50.8-55.641c-.287,1.846.169,2.4,1.93,2.4H79.428a5.4,5.4,0,0,0,.872-.057,1.092,1.092,0,0,0,1-1.078c.029-.4,0-.815,0-1.261ZM25.629,11.53c.33-2.116-.461-2.41-1.932-2.389-3.46.047-6.915.015-10.383.018a9.056,9.056,0,0,0-1.095.044,1.027,1.027,0,0,0-.974.93,11.9,11.9,0,0,0-.01,1.4ZM74.034,28.47V26.128H69.311V28.47Z" fill="#fff"/>
    <path id="Path_2439" data-name="Path 2439" d="M63.567,171.71V174H58.81V171.71Z" transform="translate(-42.737 -140.711)" fill="#fff"/>
    <path id="Path_2440" data-name="Path 2440" d="M453.44,401.59h4.754v2.339H453.44Z" transform="translate(-379.306 -336.769)" fill="#fff"/>
    <path id="Path_2441" data-name="Path 2441" d="M420.54,401.57h2.307v2.354H420.54Z" transform="translate(-351.246 -336.752)" fill="#fff"/>
    <path id="Path_2442" data-name="Path 2442" d="M425.318,467.39v2.335H420.56V467.39Z" transform="translate(-351.263 -392.888)" fill="#fff"/>
    <path id="Path_2443" data-name="Path 2443" d="M469.435,468.975c-.018-.131-.04-.224-.044-.318-.1-2.175.147-2.381,2.391-1.966v2.283Z" transform="translate(-392.895 -392.143)" fill="#fff"/>
  </g>
</svg>
