<svg xmlns="http://www.w3.org/2000/svg" width="114.092" height="55" viewBox="0 0 114.092 55">
  <g id="ppda-01" transform="translate(-8 -6.464)">
    <path id="Path_2401" data-name="Path 2401" d="M86.932,56.286a14.476,14.476,0,0,1,2.524.518c.5.2.872.741,1.3,1.131-.444.418-.827,1.093-1.342,1.214-1.917.447-3.872.639-5.789,1.073a37.171,37.171,0,0,0-3.709,1.243c-.061-1.217-.1-2-.137-2.773a30.107,30.107,0,0,1-5.405,1.7,85.835,85.835,0,0,1-8.98.428c-3.514.064-7.06,0-10.782,0,2.08-5.75,6.185-10.6,5.865-16.647-2.118.319-4.415.751-6.731.958A9.859,9.859,0,0,1,50.7,44.6c-1.958-.479-2.715-1.671-2.029-3.645,5.817-.69,7.274-1.7,7.517-4.76-2.581,1.326-5.4,2.725-8.156,4.236a1.965,1.965,0,0,0-.693,1.492c-.051,4.968-.032,9.935-.032,15.2l5.341.946c.639,2.843.026,3.233-2.8,3.083-4.306-.23-8.625-.016-12.964,0H34.557c-.617-1.891,0-2.76,1.827-3.271,2.85-.789,2.818-.923,2.821-3.8,0-3.54.032-7.082-.064-10.619,0-.54-.639-1.517-.958-1.524-4.894-.1-9.791-.07-14.909-.07V60.7H8V6.517H9.891c10.188,0,20.375-.1,30.556.045,4.853.07,9.51,1.105,13.452,4.3a14.508,14.508,0,0,1,5.667,11.344A3.655,3.655,0,0,0,61.132,25.4c4.032,3.195,5.083,7.482,3.734,12.647a3.674,3.674,0,0,0,.639-.434,2.236,2.236,0,0,0,.23-.5c4.581-9.664,9.188-19.315,13.737-29a2.412,2.412,0,0,1,2.636-1.652c4.715.112,9.44.054,14.158.026A1.646,1.646,0,0,1,98.084,7.6q11.577,25.637,23.247,51.232c.275.6.476,1.24.76,1.99-5.281,0-10.37.029-15.462-.048a1.941,1.941,0,0,1-1.364-1.061c-1.224-2.814-2.307-5.686-3.514-8.51-.2-.47-.741-1.131-1.137-1.14-4.517-.08-9.038-.051-13.676-.051ZM34.285,24.3c-.351,1.4.767,1.431,1.728,1.6,2.492.393,3.418,1.348,3.46,3.731.141,7.693.067,15.392.47,23.068.176,3.373-.367,5.626-4.022,6.287-.335.061-.559.722-.834,1.105a6.345,6.345,0,0,0,1.249.227c3.7-.042,7.392-.121,11.088-.169,1.24-.019,2.485.08,3.722,0,.371-.022.716-.447,1.073-.69-.319-.284-.578-.741-.933-.818a20.539,20.539,0,0,0-3.092-.406c-1.016-.067-1.6-.383-1.569-1.553.051-2.354.016-4.709-.019-7.063-.1-7.009-.24-14.018-.262-21.03a3,3,0,0,1,1.077-2.236c1.85-1.105,6.226-.374,7.619,1.278a9.631,9.631,0,0,1,1.578,10.05c-1.105,3.08-3.594,4.006-6.661,3.8a10.143,10.143,0,0,0-1.278.268c.719.808,1.1,1.6,1.715,1.869a10.085,10.085,0,0,0,7.028.543c3.98-1.045,6.929-5.067,7.172-9.293.288-4.958-3.1-9.747-7.012-10.162-2.853-.3-5.75-.345-8.625-.377C44.147,24.263,39.307,24.3,34.285,24.3ZM89.852,58.068l-.038-.434c-.294-.054-.585-.128-.879-.157-2.776-.268-2.77-.265-2.77-2.942,0-9,.022-18,0-27,0-1.779-.217-3.556-.345-5.46l-9.456,2.013c3.338,1.166,3.786,1.549,4.076,4.955.188,2.217.042,4.472.042,6.709v2.808C72.5,34.92,68.065,35.546,63.407,40.894a11.862,11.862,0,0,0-.575,14.254c4.843,6.689,11.162,5.674,17.57,2.045.1,1.179.179,2.2.249,3.06ZM38.534,30.675c-.15-3.485-.284-3.639-2.974-4.115-2.463-.438-2.556-.6-2.057-3.281l10.165.454c-.639-3.271-2.338-5.389-5.316-5.7-4.766-.5-9.584-.562-14.376-.792a2.6,2.6,0,0,0-.76.185V31.294ZM88.248,19.334c-1.409,3.195-2.083,16.066-1.166,20.289h9.459Z" transform="translate(0)" fill="#fff"/>
    <path id="Path_2402" data-name="Path 2402" d="M206.341,116.327V119.3c0,3.342-1.418,4.824-4.856,4.718-3.23-.1-5.878-1.457-7.242-4.533a12.87,12.87,0,0,1,.623-12.382c1.383-2.322,3.667-3.195,6.741-2.7a5.448,5.448,0,0,1,4.335,4.715c.319,2.38.383,4.792.562,7.188Zm-8.354,6.031a7.2,7.2,0,0,0,6.709-.038,1.866,1.866,0,0,0,.939-1.176c.115-1.46.045-2.933.045-4.549-1.578,0-2.936-.035-4.287.026a1.359,1.359,0,0,0-1.016.511c-.824,1.677-1.575,3.412-2.39,5.214Z" transform="translate(-125.868 -66.565)" fill="#fff"/>
  </g>
</svg>
