<svg xmlns="http://www.w3.org/2000/svg" width="115.006" height="65" viewBox="0 0 115.006 65">
  <g id="samasha" transform="translate(-9.63 -7.75)">
    <path id="Path_2403" data-name="Path 2403" d="M150.742,7.75a16.164,16.164,0,0,1,4.339,4.846c2.81,4.1,4.876,8.494,4.085,13.684-.3,1.976-.931,3.9-1.218,5.881a95.691,95.691,0,0,0-1.382,11.652c-.07,3.5.648,7.009,1.025,10.537.057.544.154,1.085.23,1.615-3.358.764-5.724-1.028-5.517-4.1.127-1.892.477-3.772.591-5.674.194-3.224-1.282-5.674-3.691-7.7-1.465-1.228-2.887-2.513-4.249-3.852-4.122-4.052-4.5-8.955-2.7-14.065a35.055,35.055,0,0,1,7.677-12.349,3.518,3.518,0,0,1,.814-.474Z" transform="translate(-87.676)" fill="#fff"/>
    <path id="Path_2404" data-name="Path 2404" d="M194.912,93.658c-1.038-1.182-.25-2.123.14-3a13.4,13.4,0,0,0,1.335-6.675,10.831,10.831,0,0,0-.294-2.263c-1.265-4.189.731-7.376,3.718-9.376.951-.634,1.949-1.2,2.954-1.756,3.021-1.669,6.008-3.338,8.277-6.395a13.409,13.409,0,0,1,1.432,2.046c1.879,4.409,2.28,8.815-.063,13.237a17.727,17.727,0,0,1-6.031,6.769c-3.434,2.24-6.832,4.536-10.257,6.8A10.715,10.715,0,0,1,194.912,93.658Z" transform="translate(-123.098 -37.602)" fill="#fff"/>
    <path id="Path_2405" data-name="Path 2405" d="M113.469,87c3.438,1.382,6.552,2.563,9.606,3.882,3.338,1.449,5.864,3.631,5.961,7.657a8.431,8.431,0,0,0,2.29,5.724,2.627,2.627,0,0,1,.491,3.318,15.882,15.882,0,0,1-2.083-.614c-2.443-1.085-4.91-2.139-7.279-3.374a29.739,29.739,0,0,1-5.34-3.338C112.952,96.739,111.957,92.237,113.469,87Z" transform="translate(-68.736 -52.799)" fill="#fff"/>
    <path id="Path_2406" data-name="Path 2406" d="M106.74,179.2h-2.87V169.189c2.29-.6,2.29-.6,2.937.684a31.527,31.527,0,0,1,4.826-1.455,4.668,4.668,0,0,1,4.339,2.036c2.053-1.726,4.252-2.593,6.882-1.742,1.509.487,2.637,1.378,2.727,2.967.14,2.46.037,4.93.037,7.53H122.3c-.067-.895-.16-1.722-.187-2.55-.04-1.245.06-2.5-.07-3.738-.174-1.652-.915-2.3-2.37-2.336a2.864,2.864,0,0,0-3.177,2.273,21.068,21.068,0,0,0-.107,2.87v3.491H113.1c-.083-.811-.2-1.545-.224-2.283-.04-1.245.047-2.5-.043-3.738-.13-1.872-.841-2.6-2.37-2.627a2.939,2.939,0,0,0-3.268,2.547,28.392,28.392,0,0,0-.067,2.874c-.02.861-.037,1.722-.083,2.583C107.047,178.738,106.894,178.9,106.74,179.2Z" transform="translate(-62.786 -107.014)" fill="#fff"/>
    <path id="Path_2407" data-name="Path 2407" d="M273.271,163.44a6.049,6.049,0,0,1,5.541-1.619,3.141,3.141,0,0,1,2.961,3c.134,1.726.067,3.444.06,5.167,0,.841-.077,1.669-.127,2.67h-3.177c-.033-1.946-.063-3.832-.1-5.717-.047-2.19-.434-2.794-1.869-2.954a2.751,2.751,0,0,0-3.354,2.69c-.164,1.886-.033,3.8-.033,5.924H269.83v-14h3.131C273.064,160.132,273.154,161.607,273.271,163.44Z" transform="translate(-173.354 -100.501)" fill="#fff"/>
    <path id="Path_2408" data-name="Path 2408" d="M187.691,178.218a30.456,30.456,0,0,1-4.479,1.305,6.031,6.031,0,0,1-3.041-.557,3.006,3.006,0,0,1-2.123-2.807,2.9,2.9,0,0,1,2.163-2.764,35.38,35.38,0,0,1,4.723-1.1,21.38,21.38,0,0,1,2.58-.184c.3-1.415-.564-1.879-1.5-2.076a4.286,4.286,0,0,0-4.052.874c-1,.975-2.033.694-3.274.334a3.113,3.113,0,0,1,2.406-2.366,12.6,12.6,0,0,1,7.343-.287c2.033.6,2.67,1.335,2.73,3.475.067,2.276,0,4.553,0,7.009C189.874,179.323,188.5,179.543,187.691,178.218Zm-.073-3.968c-3.234-.651-4.5-.257-5.931,1.859.958,1.669,2.527,1.465,4.005,1.088A2.33,2.33,0,0,0,187.618,174.249Z" transform="translate(-112.205 -106.875)" fill="#fff"/>
    <path id="Path_2409" data-name="Path 2409" d="M62,172c-1.522-2.336-3.431-2.784-5.537-1.372-1.131.758-2.079,1.312-3.5.367.284-1.385,1.445-1.9,2.563-2.26a12.152,12.152,0,0,1,7.079-.167c2,.547,2.67,1.372,2.717,3.495.067,2.276,0,4.556,0,6.962-1.378.364-2.707.334-3.525-.838a29.055,29.055,0,0,1-4.5,1.3,6.222,6.222,0,0,1-3.044-.6,2.958,2.958,0,0,1-2.073-2.837,2.787,2.787,0,0,1,1.973-2.6,46.976,46.976,0,0,1,5.31-1.208A20.833,20.833,0,0,1,62,172Zm-.307,2.089a6.241,6.241,0,0,0-4.936.668c-.961.567-.961,2.059,0,2.27a7.586,7.586,0,0,0,3.568-.107A2.134,2.134,0,0,0,61.689,174.088Z" transform="translate(-28.344 -106.844)" fill="#fff"/>
    <path id="Path_2410" data-name="Path 2410" d="M324.331,172.079a1.308,1.308,0,0,0-1-1.879c-1.509-.407-3.074-.564-4.282.718-1,1.071-2,.668-3.221.411.18-1.756,1.4-2.22,2.533-2.55a13.261,13.261,0,0,1,7.076-.147c1.856.474,2.543,1.238,2.6,3.211.063,2.28.017,4.566.017,6.962-2.079.791-2.226.754-3.278-1.025a24.262,24.262,0,0,1-2.447,1.382,6.1,6.1,0,0,1-5.267-.207c-1.192-.577-2.153-1.452-2.079-2.827a2.914,2.914,0,0,1,2.216-2.717c1.649-.454,3.338-.768,5.007-1.095C322.932,172.169,323.68,172.152,324.331,172.079Zm.4,2.243a5.89,5.89,0,0,0-5.237.511,1.812,1.812,0,0,0-.668,1.405,1.3,1.3,0,0,0,.864.951,11.207,11.207,0,0,0,3.608-.244c1.058-.32,1.475-1.385,1.442-2.623Z" transform="translate(-203.433 -106.911)" fill="#fff"/>
    <path id="Path_2411" data-name="Path 2411" d="M18.518,175.856c-.878-.24-1.749-.5-2.633-.711a23.559,23.559,0,0,1-3.9-.884c-2.36-1-2.643-3.161-.734-4.743,1.509-1.255,3.338-1.335,5.177-1.2,1.7.127,3.465.237,4.536,2.126a2.4,2.4,0,0,1-3.107.18,3.526,3.526,0,0,0-4.392.16c-.03,1.215.778,1.305,1.535,1.439a36.951,36.951,0,0,1,4.226.774,5.34,5.34,0,0,1,2.36,1.479,2.58,2.58,0,0,1-.447,3.6c-2.77,2.493-8.932,2-11.508-1a3.247,3.247,0,0,1,3.7-.107,4.322,4.322,0,0,0,5.16-.334Z" transform="translate(0 -106.943)" fill="#fff"/>
    <path id="Path_2412" data-name="Path 2412" d="M235.442,170.719a4.235,4.235,0,0,1-3.752-.29c-1.409-.831-2.86-.627-4.506.714a8.966,8.966,0,0,0,1.876,1c1.489.334,3.024.454,4.513.788,1.752.394,2.887,1.512,2.847,2.79a3.241,3.241,0,0,1-2.26,3,9.988,9.988,0,0,1-8.588-.067,10.455,10.455,0,0,1-1.792-1.422c1.432-.9,2.416-1.028,3.728-.3a5.11,5.11,0,0,0,5.44-.214c-.29-1.282-1.218-1.422-2.169-1.569a38.047,38.047,0,0,1-3.942-.7c-1.669-.454-2.386-1.4-2.376-2.807,0-1.532.831-2.477,2.577-2.977a11.245,11.245,0,0,1,6.225.04A2.937,2.937,0,0,1,235.442,170.719Z" transform="translate(-142.674 -106.926)" fill="#fff"/>
  </g>
</svg>
