<svg xmlns="http://www.w3.org/2000/svg" width="135.523" height="34.666" viewBox="0 0 135.523 34.666">
  <g id="logo" transform="translate(0 -0.04)">
    <path id="Path_2385" data-name="Path 2385" d="M43.177,104.641c-7.644-5.163-12.908-11.445-13.8-15.9v21.923a.647.647,0,0,0,.647.647H57.939a42.74,42.74,0,0,1-14.762-6.669" transform="translate(-29.38 -76.603)" fill="#fff"/>
    <path id="Path_2386" data-name="Path 2386" d="M67.011,115.237c.477-.639,2.751.253,5.123,1.98l.9-.571a.237.237,0,0,0-.03-.023c-2.9-2.16-5.769-3.2-6.421-2.326-.424.571.207,1.809,1.49,3.2-.9-1.01-1.349-1.872-1.061-2.258" transform="translate(-57.086 -95.475)" fill="#fff"/>
    <path id="Path_2387" data-name="Path 2387" d="M86.138,127.48l-.887.563c1.942,1.609,3.112,3.231,2.685,3.809-.485.649-2.811-.268-5.216-2.049l.078.063c2.892,2.157,5.769,3.2,6.418,2.324.573-.773-.773-2.779-3.079-4.711" transform="translate(-69.247 -105.558)" fill="#fff"/>
    <path id="Path_2388" data-name="Path 2388" d="M57.7,99.044l.672-.424c-4.213-3.332-6.568-7.088-5.34-8.889,1.379-2.044,6.82-.783,12.152,2.827.447.3.859.619,1.263.935l1.132-.72c-.457-.344-.93-.685-1.422-1.01-6.431-4.352-13.026-5.848-14.729-3.327-1.483,2.193,1.24,6.691,6.216,10.687.023-.023.025-.061.056-.078" transform="translate(-45.556 -75.459)" fill="#fff"/>
    <path id="Path_2389" data-name="Path 2389" d="M90.875,112.145l-1.134.717c3.938,3.243,6.088,6.82,4.923,8.545-1.377,2.041-6.82.775-12.15-2.827-.293-.2-.551-.4-.829-.606l-.786.505c.462.346.937.69,1.432,1.01,6.436,4.352,13.036,5.84,14.736,3.322,1.478-2.187-1.233-6.681-6.194-10.672" transform="translate(-67.886 -94.092)" fill="#fff"/>
    <path id="Path_2390" data-name="Path 2390" d="M57.861,79.542l-.672.427c6.568,5.211,10.192,11.132,8.257,14-2.193,3.253-10.728,1.326-19.053-4.294S33.086,76.847,35.286,73.594s10.728-1.331,19.058,4.294c.649.437,1.263.887,1.869,1.339l.674-.427c-.69-.505-1.392-1.028-2.129-1.516-9.2-6.224-18.621-8.346-21.044-4.754s3.059,11.539,12.253,17.758,18.616,8.336,21.039,4.751c2.137-3.173-1.879-9.722-9.157-15.487" transform="translate(-32.192 -63.182)" fill="#fff"/>
    <path id="Path_2391" data-name="Path 2391" d="M94.307,69.39H68.3a44.488,44.488,0,0,1,13.678,6.424c.692.467,1.354.947,2.006,1.43L89.422,73.8a.569.569,0,1,1,.609.962l-5.085,3.223c4.825,3.754,8.394,7.851,10.008,11.316V70.049a.647.647,0,0,0-.647-.647" transform="translate(-58.469 -62.141)" fill="#fff"/>
    <path id="Path_2392" data-name="Path 2392" d="M205.607,97.384c0-.826-1.111-1.768-3.339-2.811a32.069,32.069,0,0,1-5.724-3.16,3.335,3.335,0,0,1-1.493-2.65q0-3.789,4.16-6.264T206,80a4.374,4.374,0,0,1,2.453.533,2.078,2.078,0,0,1,.758,1.841,1.23,1.23,0,0,1-.553,1.01,1.672,1.672,0,0,1-.866.417,2.956,2.956,0,0,1-.892-.265,3.177,3.177,0,0,0-.877-.268,14.148,14.148,0,0,0-4.234,1.389q-3.188,1.389-3.193,3.117a2.435,2.435,0,0,0,1.127,1.927,20.9,20.9,0,0,0,4.042,2.117,15.8,15.8,0,0,1,3.766,2.193,3.476,3.476,0,0,1,1.407,2.743q0,2.9-4.4,4.547a24.086,24.086,0,0,1-8.409,1.644q-3.38,0-3.38-2.089a1.121,1.121,0,0,1,.758-1.063,3.711,3.711,0,0,1,1.533-.341,7.1,7.1,0,0,1,1.19.187,6.567,6.567,0,0,0,1.127.192,19.505,19.505,0,0,0,4.966-.7q2.645-.7,3.284-1.745" transform="translate(-151.483 -70.071)" fill="#fff"/>
    <path id="Path_2393" data-name="Path 2393" d="M285.008,47.863q-.437,0-.667-.856a5.054,5.054,0,0,0-.23-.586,5.33,5.33,0,0,1-.563-2.147,2.149,2.149,0,0,1,.99-1.548,3.466,3.466,0,0,1,2.2-.786,2.811,2.811,0,0,1,1.356.424q.758.429.758.826a8.011,8.011,0,0,1-.505,2.127,3.191,3.191,0,0,1-1.627,2.021,4.55,4.55,0,0,1-1.7.525m-2.733,21.218a13.847,13.847,0,0,0,.44,3.246,2.5,2.5,0,0,1,.083.571q0,.341-.687.882a2.334,2.334,0,0,1-1.463.541q-2.021,0-2.021-3.38a60.638,60.638,0,0,1,1.586-11.046,25.348,25.348,0,0,0,.525-3.261,4.067,4.067,0,0,1,.48-2.049,1.493,1.493,0,0,1,1.356-.844,2.713,2.713,0,0,1,1.68.465,1.308,1.308,0,0,1,.616,1.033,5.306,5.306,0,0,1-.293,1.5,64.709,64.709,0,0,0-1.94,7.191,30.563,30.563,0,0,0-.384,5.138" transform="translate(-215.678 -41.625)" fill="#fff"/>
    <path id="Path_2394" data-name="Path 2394" d="M332.129,63.6q.273-.318,3.733-3.054,3.284-2.6,4.567-3.789,4.822-4.388,6.929-4.385,1.624,0,1.627,1.422a2.5,2.5,0,0,1-1.607,2.374,49.54,49.54,0,0,0-5.57,3.218q-3.486,2.246-3.483,3.18,0,.379,2.463,2.839a28.038,28.038,0,0,0,4.254,3.625,6.348,6.348,0,0,0,3.483,1.167l.69-.018c.488-.025.73.172.73.589a2.311,2.311,0,0,1-1.147,1.7,4.869,4.869,0,0,1-3.031.864,4.622,4.622,0,0,1-2.453-.758,28.605,28.605,0,0,1-4.413-4.148q-2.526-2.794-3.15-3.332a1.767,1.767,0,0,0-1.046-.541,5.227,5.227,0,0,0-1.46.985c-.823.657-1.263,1.159-1.344,1.5a32.315,32.315,0,0,0-.114,3.91v.894a1.587,1.587,0,0,1-.73,1.25,2.574,2.574,0,0,1-1.586.553,1.937,1.937,0,0,1-1.377-.467,1.326,1.326,0,0,1-.505-.957,20.781,20.781,0,0,1,.563-3.228q.791-3.665,1.457-9.816,1.546-14.522,2.379-16.419a2.639,2.639,0,0,1,2.377-1.91,1.074,1.074,0,0,1,.909.53,2.377,2.377,0,0,1,.366,1.367,56.678,56.678,0,0,1-1.442,8.068,115.287,115.287,0,0,0-2.084,12.8" transform="translate(-252.263 -40.81)" fill="#fff"/>
    <path id="Path_2395" data-name="Path 2395" d="M440.688,47.863c-.29,0-.505-.285-.667-.856a6.147,6.147,0,0,0-.23-.586,5.337,5.337,0,0,1-.566-2.147,2.145,2.145,0,0,1,.993-1.548,3.466,3.466,0,0,1,2.2-.786,2.827,2.827,0,0,1,1.356.424q.758.428.758.826a8.01,8.01,0,0,1-.505,2.127,3.194,3.194,0,0,1-1.629,2.021,4.554,4.554,0,0,1-1.7.525m-2.736,21.218a13.845,13.845,0,0,0,.44,3.246,2.526,2.526,0,0,1,.086.571q0,.341-.69.882a2.321,2.321,0,0,1-1.46.541q-2.021,0-2.021-3.38a60.635,60.635,0,0,1,1.586-11.046,24.947,24.947,0,0,0,.543-3.248,4.067,4.067,0,0,1,.48-2.041,1.493,1.493,0,0,1,1.351-.856,2.71,2.71,0,0,1,1.677.465,1.3,1.3,0,0,1,.6,1.033,5.239,5.239,0,0,1-.3,1.5,65.491,65.491,0,0,0-1.94,7.176,30.841,30.841,0,0,0-.376,5.145" transform="translate(-332.034 -41.625)" fill="#fff"/>
    <path id="Path_2396" data-name="Path 2396" d="M495.321,87.194q-2.753,0-6.406,4.7t-3.658,7.8q0,2.182,1.586,2.182,2.291,0,6.363-4.216t4.067-7.745q0-2.713-1.96-2.715m1.263,10.69a24.363,24.363,0,0,1-5.762,5.355,10.042,10.042,0,0,1-5.236,1.783,3.7,3.7,0,0,1-2.779-1.235,4.425,4.425,0,0,1-1.169-3.17q0-4.994,4.905-10.756t9.745-5.762a2.767,2.767,0,0,1,2.607,1.821.892.892,0,0,0,.854.609q1.67,0,1.67,1.177a8.591,8.591,0,0,1-.207,1.614,46.5,46.5,0,0,0-1.127,7.9q0,4.595,1.92,5.509c.611.3.917.677.917,1.119q0,.586-.9,1.187a3.127,3.127,0,0,1-1.73.6q-1.609,0-2.652-2.021a12.715,12.715,0,0,1-1.041-5.731" transform="translate(-367.391 -73.135)" fill="#fff"/>
  </g>
</svg>
