<svg xmlns="http://www.w3.org/2000/svg" width="49.998" height="50.001" viewBox="0 0 49.998 50.001">
  <g id="Group_323" data-name="Group 323" transform="translate(-730 -2444.999)">
    <path id="Path_2554" data-name="Path 2554" d="M4.554-7.348A3.684,3.684,0,0,0,1.8-9.614c-.132-.022-.176-.088-.088-.176L4.6-12.408a.633.633,0,0,0,.2-.462v-2.156a.337.337,0,0,0-.374-.374H-4.532a.337.337,0,0,0-.374.374v1.914a.337.337,0,0,0,.374.374H.55c.11,0,.154.088.066.154L-2.816-9.592a.359.359,0,0,0-.044.528L-1.694-7.5a.362.362,0,0,0,.528.088A1.955,1.955,0,0,1-.154-7.832,1.711,1.711,0,0,1,1.518-6.8,3.935,3.935,0,0,1,1.87-5.1a3.771,3.771,0,0,1-.308,1.54A1.714,1.714,0,0,1-.132-2.486,1.738,1.738,0,0,1-1.848-3.7a3.286,3.286,0,0,1-.22-.968.375.375,0,0,0-.4-.374H-4.84a.337.337,0,0,0-.374.374,5.959,5.959,0,0,0,.352,1.738A4.875,4.875,0,0,0-.11.176,4.789,4.789,0,0,0,4.6-2.816a5.954,5.954,0,0,0,.4-2.2A5.878,5.878,0,0,0,4.554-7.348Z" transform="translate(754.999 2478)" fill="#66d038"/>
    <g id="Union_3" data-name="Union 3" transform="translate(-2045.001 -9235)" fill="none">
      <path d="M2789.092,11727.5H2780.5a3,3,0,0,1-3-3v-8.589a24.986,24.986,0,1,1,11.591,11.591Z" stroke="none"/>
      <path d="M 2800.00048828125 11725 C 2805.342529296875 11725 2810.36474609375 11722.919921875 2814.14208984375 11719.142578125 C 2817.91943359375 11715.365234375 2819.999755859375 11710.3427734375 2819.999755859375 11705.0009765625 C 2819.999755859375 11699.6572265625 2817.91943359375 11694.634765625 2814.141845703125 11690.8564453125 C 2810.36474609375 11687.0791015625 2805.342529296875 11684.9990234375 2800.00048828125 11684.9990234375 C 2794.658447265625 11684.9990234375 2789.63623046875 11687.0791015625 2785.859130859375 11690.8564453125 C 2782.081787109375 11694.634765625 2780.00146484375 11699.6572265625 2780.00146484375 11705.0009765625 C 2780.00146484375 11708.0615234375 2780.67333984375 11710.99609375 2781.998291015625 11713.724609375 L 2782.500732421875 11714.759765625 L 2782.500732421875 11715.9091796875 L 2782.500732421875 11722.5 L 2789.092041015625 11722.5 L 2790.242431640625 11722.5 L 2791.277099609375 11723.0029296875 C 2794.0048828125 11724.328125 2796.93994140625 11725 2800.00048828125 11725 M 2800.00048828125 11730 C 2796.089599609375 11730 2792.388427734375 11729.1015625 2789.092041015625 11727.5 L 2780.50048828125 11727.5 C 2778.84326171875 11727.5 2777.500732421875 11726.1552734375 2777.500732421875 11724.498046875 L 2777.500732421875 11715.9091796875 C 2775.899658203125 11712.6123046875 2775.00146484375 11708.9111328125 2775.00146484375 11705.0009765625 C 2775.00146484375 11691.19140625 2786.19384765625 11679.9990234375 2800.00048828125 11679.9990234375 C 2813.80712890625 11679.9990234375 2824.999755859375 11691.19140625 2824.999755859375 11705.0009765625 C 2824.999755859375 11718.8076171875 2813.80712890625 11730 2800.00048828125 11730 Z" stroke="none" fill="#fff"/>
    </g>
  </g>
</svg>
