<svg xmlns="http://www.w3.org/2000/svg" width="49.998" height="50.001" viewBox="0 0 49.998 50.001">
  <g id="Group_325" data-name="Group 325" transform="translate(-730 -2629.999)">
    <path id="Path_2556" data-name="Path 2556" d="M4.873-7.018A4.419,4.419,0,0,0,.539-9.944a4.334,4.334,0,0,0-2.266.616c-.088.066-.154.022-.154-.088l.022-3.19a.142.142,0,0,1,.132-.132H4.279a.337.337,0,0,0,.374-.374v-1.914a.337.337,0,0,0-.374-.374H-4.587a.337.337,0,0,0-.374.374v8.492a.337.337,0,0,0,.374.374h2.53a.468.468,0,0,0,.44-.286A1.911,1.911,0,0,1,.077-7.26a1.647,1.647,0,0,1,1.76,1.188,2.974,2.974,0,0,1,.2,1.21,2.873,2.873,0,0,1-.154.9,3.385,3.385,0,0,1-.176.418A1.718,1.718,0,0,1,.077-2.53,1.72,1.72,0,0,1-1.639-3.718a1.724,1.724,0,0,1-.11-.308.405.405,0,0,0-.418-.308H-4.609a.32.32,0,0,0-.352.4,4.814,4.814,0,0,0,.308,1.1A4.849,4.849,0,0,0,.077.154,4.829,4.829,0,0,0,4.851-2.9,5.513,5.513,0,0,0,5.2-4.928,7.239,7.239,0,0,0,4.873-7.018Z" transform="translate(754.999 2663)" fill="#66d038"/>
    <g id="Union_5" data-name="Union 5" transform="translate(-2045.001 -9050)" fill="none">
      <path d="M2789.092,11727.5H2780.5a3,3,0,0,1-3-3v-8.589a24.986,24.986,0,1,1,11.591,11.591Z" stroke="none"/>
      <path d="M 2800.00048828125 11725 C 2805.342529296875 11725 2810.36474609375 11722.919921875 2814.14208984375 11719.142578125 C 2817.91943359375 11715.365234375 2819.999755859375 11710.3427734375 2819.999755859375 11705.0009765625 C 2819.999755859375 11699.6572265625 2817.91943359375 11694.634765625 2814.141845703125 11690.8564453125 C 2810.36474609375 11687.0791015625 2805.342529296875 11684.9990234375 2800.00048828125 11684.9990234375 C 2794.658447265625 11684.9990234375 2789.63623046875 11687.0791015625 2785.859130859375 11690.8564453125 C 2782.081787109375 11694.634765625 2780.00146484375 11699.6572265625 2780.00146484375 11705.0009765625 C 2780.00146484375 11708.0615234375 2780.67333984375 11710.99609375 2781.998291015625 11713.724609375 L 2782.500732421875 11714.759765625 L 2782.500732421875 11715.9091796875 L 2782.500732421875 11722.5 L 2789.092041015625 11722.5 L 2790.242431640625 11722.5 L 2791.277099609375 11723.0029296875 C 2794.0048828125 11724.328125 2796.93994140625 11725 2800.00048828125 11725 M 2800.00048828125 11730 C 2796.089599609375 11730 2792.388427734375 11729.1015625 2789.092041015625 11727.5 L 2780.50048828125 11727.5 C 2778.84326171875 11727.5 2777.500732421875 11726.1552734375 2777.500732421875 11724.498046875 L 2777.500732421875 11715.9091796875 C 2775.899658203125 11712.6123046875 2775.00146484375 11708.9111328125 2775.00146484375 11705.0009765625 C 2775.00146484375 11691.19140625 2786.19384765625 11679.9990234375 2800.00048828125 11679.9990234375 C 2813.80712890625 11679.9990234375 2824.999755859375 11691.19140625 2824.999755859375 11705.0009765625 C 2824.999755859375 11718.8076171875 2813.80712890625 11730 2800.00048828125 11730 Z" stroke="none" fill="#fff"/>
    </g>
  </g>
</svg>
