<svg xmlns="http://www.w3.org/2000/svg" width="49.998" height="50.001" viewBox="0 0 49.998 50.001">
  <g id="Group_322" data-name="Group 322" transform="translate(-1130.001 -2244.999)">
    <path id="Path_2553" data-name="Path 2553" d="M-4.8,0h9.68a.337.337,0,0,0,.374-.374V-2.288a.337.337,0,0,0-.374-.374H-.88c-.11,0-.154-.088-.066-.154C.572-4.422,2-5.852,3.124-7.238A6.586,6.586,0,0,0,4.972-11.22c0-2.4-1.936-4.356-5.126-4.356-2.816,0-4.972,1.54-5.1,3.982v.924a.337.337,0,0,0,.374.374h2.376a.337.337,0,0,0,.374-.374v-.44a1.8,1.8,0,0,1,1.98-1.8,1.787,1.787,0,0,1,1.98,1.76c0,.814-.814,1.98-2,3.3-1.474,1.584-3.036,3.41-4.8,5.17a.671.671,0,0,0-.2.462V-.374A.337.337,0,0,0-4.8,0Z" transform="translate(1155 2278)" fill="#66d038"/>
    <g id="Union_1" data-name="Union 1" transform="translate(-1645 -9435)" fill="none">
      <path d="M2789.092,11727.5H2780.5a3,3,0,0,1-3-3v-8.589a24.986,24.986,0,1,1,11.591,11.591Z" stroke="none"/>
      <path d="M 2800.00048828125 11725 C 2805.342529296875 11725 2810.36474609375 11722.919921875 2814.14208984375 11719.142578125 C 2817.91943359375 11715.365234375 2819.999755859375 11710.3427734375 2819.999755859375 11705.0009765625 C 2819.999755859375 11699.6572265625 2817.91943359375 11694.634765625 2814.141845703125 11690.8564453125 C 2810.36474609375 11687.0791015625 2805.342529296875 11684.9990234375 2800.00048828125 11684.9990234375 C 2794.658447265625 11684.9990234375 2789.63623046875 11687.0791015625 2785.859130859375 11690.8564453125 C 2782.081787109375 11694.634765625 2780.00146484375 11699.6572265625 2780.00146484375 11705.0009765625 C 2780.00146484375 11708.0615234375 2780.67333984375 11710.99609375 2781.998291015625 11713.724609375 L 2782.500732421875 11714.759765625 L 2782.500732421875 11715.9091796875 L 2782.500732421875 11722.5 L 2789.092041015625 11722.5 L 2790.242431640625 11722.5 L 2791.277099609375 11723.0029296875 C 2794.0048828125 11724.328125 2796.93994140625 11725 2800.00048828125 11725 M 2800.00048828125 11730 C 2796.089599609375 11730 2792.388427734375 11729.1015625 2789.092041015625 11727.5 L 2780.50048828125 11727.5 C 2778.84326171875 11727.5 2777.500732421875 11726.1552734375 2777.500732421875 11724.498046875 L 2777.500732421875 11715.9091796875 C 2775.899658203125 11712.6123046875 2775.00146484375 11708.9111328125 2775.00146484375 11705.0009765625 C 2775.00146484375 11691.19140625 2786.19384765625 11679.9990234375 2800.00048828125 11679.9990234375 C 2813.80712890625 11679.9990234375 2824.999755859375 11691.19140625 2824.999755859375 11705.0009765625 C 2824.999755859375 11718.8076171875 2813.80712890625 11730 2800.00048828125 11730 Z" stroke="none" fill="#fff"/>
    </g>
  </g>
</svg>
