<svg xmlns="http://www.w3.org/2000/svg" width="75.035" height="75" viewBox="0 0 75.035 75">
  <g id="web-hosting-01" transform="translate(-5.368 -6.84)">
    <path id="Path_2444" data-name="Path 2444" d="M124.762,62.532a9.022,9.022,0,0,1-1.64,3.86c-.671.832-1.5,1.05-2.214.515a1.469,1.469,0,0,1-.159-2.2,5.606,5.606,0,0,0,1.094-3.559q-.022-19.122-.01-38.243c0-3.34-1.869-5.207-5.218-5.207h-11.9v5.676h9.672c1.113,0,1.75.541,1.75,1.431a1.369,1.369,0,0,1-1.067,1.388,4.613,4.613,0,0,1-1.015.1c-2.833.008-5.665,0-8.5,0h-.841v4.687h9.705c1.039,0,1.643.493,1.707,1.325a1.36,1.36,0,0,1-1.093,1.506,4.918,4.918,0,0,1-1.015.092h-9.29v4.689h9.653c1.113,0,1.75.539,1.75,1.431a1.369,1.369,0,0,1-1.066,1.392,4.51,4.51,0,0,1-1.015.1c-2.833.008-5.665,0-8.5,0h-.837V46.2h9.7c1.069,0,1.687.528,1.716,1.395a1.357,1.357,0,0,1-1.1,1.431,4.811,4.811,0,0,1-1.015.092h-9.354V50.5c-.013,1.174-.588,1.886-1.5,1.867s-1.431-.685-1.431-1.848V15.429c0-2.29-.827-4.135-2.961-5.121a6.661,6.661,0,0,0-2.686-.544c-5.885-.046-11.769-.025-17.654-.024-3.507,0-5.675,2.157-5.676,5.656v41.8l.2.056c.118-.191.242-.375.35-.571a16.366,16.366,0,0,1,7.439-7.011,1.53,1.53,0,0,1,2.219.514,1.479,1.479,0,0,1-.886,2.08,13.74,13.74,0,0,0-6.233,5.877c-.159.3-.318.608-.45.919-.717,1.611-1.159,1.812-2.841,1.214a5.249,5.249,0,0,0-3.3-.115A5.431,5.431,0,0,0,65.3,66.137c.172,1.5.06,1.7-1.293,2.406a5.475,5.475,0,0,0,1.721,10.268,7.963,7.963,0,0,0,1.167.087h38.095A8.241,8.241,0,1,0,99.44,64.774,18.634,18.634,0,0,0,98,66.608a1.474,1.474,0,1,1-2.459-1.6,10.882,10.882,0,0,1,4.135-4.056l.854-.477a12.671,12.671,0,0,0-3.857-5.961c-.9-.773-1.975-1.334-2.93-2.045a3.233,3.233,0,0,1-1.031-1.145,1.2,1.2,0,0,1,.463-1.431,1.447,1.447,0,0,1,1.649-.142,15.768,15.768,0,0,1,6.437,5.6,22.871,22.871,0,0,1,1.788,3.507.917.917,0,0,0,1.113.69A11.154,11.154,0,0,1,106.8,81.7a13.431,13.431,0,0,1-1.75.134q-19.157.013-38.314,0a8.4,8.4,0,0,1-4.981-15.31c.318-.219.59-.382.588-.889a8.424,8.424,0,0,1,7-8.5c.14-.029.282-.049.453-.078v-7.9H60.4a4.347,4.347,0,0,1-.942-.092,1.42,1.42,0,0,1,.119-2.787,15.757,15.757,0,0,1,1.75-.046h8.452V41.538H60.429a4.518,4.518,0,0,1-1.015-.1,1.369,1.369,0,0,1-1.059-1.4,1.4,1.4,0,0,1,1.1-1.371,5.09,5.09,0,0,1,.954-.059h9.355v-4.7H60.4a4.463,4.463,0,0,1-.943-.092,1.42,1.42,0,0,1,.116-2.788,14.247,14.247,0,0,1,1.608-.046h8.6V26.3H60.44a4.5,4.5,0,0,1-1.015-.1A1.365,1.365,0,0,1,58.37,24.73a1.388,1.388,0,0,1,1.166-1.323,5.358,5.358,0,0,1,.876-.046h9.376c.016-.3.04-.558.04-.814V15.44a8.108,8.108,0,0,1,6.839-8.485.606.606,0,0,0,.178-.115h20.81a3.362,3.362,0,0,0,.394.145,8.07,8.07,0,0,1,6.416,6.271,14.221,14.221,0,0,1,.235,1.5h.808c3.879,0,7.76-.011,11.639,0a7.47,7.47,0,0,1,5.885,2.783,8.832,8.832,0,0,1,1.737,3.806Z" transform="translate(-44.366)" fill="#f27121"/>
    <path id="Path_2445" data-name="Path 2445" d="M5.374,83.876V64.613a7.616,7.616,0,0,1,8-7.992c2.441,0,4.883-.008,7.316,0,1.013,0,1.635.518,1.689,1.35.062.954-.582,1.567-1.686,1.571-2.515.013-5.029,0-7.542,0a4.661,4.661,0,0,0-4.843,4.77v39.181a4.516,4.516,0,0,0,2.368,4.1c.127.075.256.143.377.226a1.453,1.453,0,0,1,.549,2.026,1.437,1.437,0,0,1-1.988.493,6.9,6.9,0,0,1-3.626-3.927,10.5,10.5,0,0,1-.585-3.28C5.347,96.715,5.374,90.295,5.374,83.876Z" transform="translate(0 -41.861)" fill="#f27121"/>
    <path id="Path_2446" data-name="Path 2446" d="M199.415,68.807c-2.05,0-4.1.013-6.152,0-1.223-.011-1.961-.954-1.57-1.959a1.431,1.431,0,0,1,1.423-.954q6.373-.017,12.744,0a1.461,1.461,0,0,1,1.528,1.454,1.49,1.49,0,0,1-1.6,1.458C203.663,68.82,201.54,68.807,199.415,68.807Z" transform="translate(-156.603 -49.654)" fill="#f27121"/>
    <path id="Path_2447" data-name="Path 2447" d="M199.49,113.716c2.076,0,4.151-.013,6.227,0,1.221.01,1.959.954,1.57,1.958a1.431,1.431,0,0,1-1.423.954q-6.371.014-12.744,0a1.461,1.461,0,0,1-1.528-1.454,1.488,1.488,0,0,1,1.6-1.458C195.291,113.7,197.39,113.716,199.49,113.716Z" transform="translate(-156.604 -89.873)" fill="#f27121"/>
    <path id="Path_2448" data-name="Path 2448" d="M199.49,161.62c2.076,0,4.151-.013,6.225,0,1.223.011,1.961.954,1.571,1.959a1.431,1.431,0,0,1-1.423.954q-6.371.016-12.744,0a1.459,1.459,0,0,1-1.528-1.452,1.49,1.49,0,0,1,1.6-1.46C195.289,161.607,197.39,161.622,199.49,161.62Z" transform="translate(-156.604 -130.158)" fill="#f27121"/>
    <path id="Path_2449" data-name="Path 2449" d="M199.488,212.547c-2.068,0-4.151.013-6.227,0-1.221-.011-1.959-.954-1.568-1.959a1.431,1.431,0,0,1,1.423-.954q6.373-.018,12.744,0a1.461,1.461,0,0,1,1.528,1.454,1.49,1.49,0,0,1-1.6,1.458C203.687,212.557,201.587,212.547,199.488,212.547Z" transform="translate(-156.603 -170.533)" fill="#f27121"/>
    <path id="Path_2450" data-name="Path 2450" d="M84.162,294.158a1.423,1.423,0,0,1,1.568,1.206,1.36,1.36,0,0,1-1.252,1.643,1.54,1.54,0,0,0-1.431,1.478A1.417,1.417,0,0,1,81.5,299.72a1.517,1.517,0,0,1-1.33-1.575A4.165,4.165,0,0,1,84.162,294.158Z" transform="translate(-62.905 -241.621)" fill="#f27121"/>
    <path id="Path_2451" data-name="Path 2451" d="M372.329,298.065a1.469,1.469,0,0,1-1.307,1.643,1.409,1.409,0,0,1-1.527-1.252,1.607,1.607,0,0,0-1.517-1.486,1.381,1.381,0,0,1-1.2-1.559,1.438,1.438,0,0,1,1.527-1.272A4.1,4.1,0,0,1,372.329,298.065Z" transform="translate(-303.921 -241.606)" fill="#f27121"/>
    <path id="Path_2452" data-name="Path 2452" d="M237.866,268.071a1.468,1.468,0,0,1-1.476,1.478,1.522,1.522,0,0,1-1.46-1.443,1.492,1.492,0,0,1,1.5-1.466,1.431,1.431,0,0,1,1.438,1.431Z" transform="translate(-193.051 -218.48)" fill="#f27121"/>
    <path id="Path_2453" data-name="Path 2453" d="M283.281,407.317a1.457,1.457,0,0,1-1.493,1.385,1.482,1.482,0,0,1-1.388-1.5,1.458,1.458,0,0,1,1.543-1.412,1.431,1.431,0,0,1,1.339,1.53Z" transform="translate(-231.288 -335.494)" fill="#f27121"/>
  </g>
</svg>
